<svg xmlns="http://www.w3.org/2000/svg" xmlns:xlink="http://www.w3.org/1999/xlink" width="500" zoomAndPan="magnify" viewBox="0 0 375 374.999991" height="500" preserveAspectRatio="xMidYMid meet" version="1.0"><defs><g/><clipPath id="64361ac028"><path d="M 58.5 58.5 L 316.5 58.5 L 316.5 316.5 L 58.5 316.5 Z M 58.5 58.5 " clip-rule="nonzero"/></clipPath><clipPath id="a216fb9c6a"><path d="M 187.5 316.5 C 153.058594 316.5 120.628906 303.09375 96.292969 278.707031 C 71.90625 254.371094 58.5 221.941406 58.5 187.5 C 58.5 153.058594 71.90625 120.628906 96.292969 96.292969 C 120.628906 71.90625 153.058594 58.5 187.5 58.5 C 221.941406 58.5 254.371094 71.90625 278.707031 96.292969 C 303.09375 120.679688 316.5 153.058594 316.5 187.5 C 316.5 221.941406 303.09375 254.371094 278.707031 278.707031 C 254.371094 303.09375 221.941406 316.5 187.5 316.5 M 187.5 66.234375 C 155.121094 66.234375 124.648438 78.867188 101.757812 101.757812 C 78.867188 124.648438 66.234375 155.121094 66.234375 187.5 C 66.234375 219.878906 78.867188 250.351562 101.757812 273.242188 C 124.648438 296.132812 155.121094 308.765625 187.5 308.765625 C 219.878906 308.765625 250.351562 296.132812 273.242188 273.242188 C 296.132812 250.351562 308.765625 219.878906 308.765625 187.5 C 308.765625 155.121094 296.132812 124.648438 273.242188 101.757812 C 250.351562 78.867188 219.878906 66.234375 187.5 66.234375 " clip-rule="nonzero"/></clipPath><clipPath id="608c845c3b"><path d="M 80.125 145.417969 L 294.625 145.417969 L 294.625 236.917969 L 80.125 236.917969 Z M 80.125 145.417969 " clip-rule="nonzero"/></clipPath><clipPath id="68c447bf92"><path d="M 96.464844 96.464844 L 278.714844 96.464844 L 278.714844 278.714844 L 96.464844 278.714844 Z M 96.464844 96.464844 " clip-rule="nonzero"/></clipPath></defs><g clip-path="url(#64361ac028)"><g clip-path="url(#a216fb9c6a)"><path fill="#112241" d="M 58.5 58.5 L 316.5 58.5 L 316.5 316.5 L 58.5 316.5 Z M 58.5 58.5 " fill-opacity="1" fill-rule="nonzero"/></g></g><g clip-path="url(#608c845c3b)"><path fill="#112241" d="M 287.988281 215.972656 C 285.269531 225.230469 281.117188 234.011719 275.964844 242.101562 C 271.710938 248.6875 266.875 254.875 261.441406 260.5 C 260.738281 261.269531 259.953125 261.957031 259.207031 262.683594 C 258.445312 263.394531 257.710938 264.132812 256.933594 264.828125 L 254.578125 266.878906 L 253.402344 267.902344 L 252.179688 268.875 L 249.738281 270.824219 C 248.910156 271.453125 248.058594 272.050781 247.222656 272.671875 C 245.566406 273.9375 243.804688 275.050781 242.082031 276.222656 C 241.835938 276.390625 241.574219 276.566406 241.300781 276.75 C 241.019531 276.917969 240.726562 277.09375 240.421875 277.277344 C 239.816406 277.640625 239.160156 278.03125 238.464844 278.449219 C 237.085938 279.3125 235.457031 280.128906 233.699219 281.0625 C 233.257812 281.289062 232.8125 281.539062 232.34375 281.765625 C 231.875 281.984375 231.394531 282.207031 230.90625 282.433594 C 229.929688 282.882812 228.914062 283.351562 227.871094 283.835938 C 225.726562 284.671875 223.492188 285.679688 221.054688 286.460938 C 211.433594 289.949219 199.425781 292.105469 187.375 292.15625 C 175.324219 292.105469 163.316406 289.949219 153.695312 286.460938 C 151.257812 285.679688 149.023438 284.671875 146.878906 283.835938 C 145.835938 283.351562 144.824219 282.882812 143.84375 282.433594 C 143.355469 282.207031 142.875 281.984375 142.40625 281.765625 C 141.9375 281.542969 141.496094 281.289062 141.050781 281.0625 C 139.292969 280.128906 137.664062 279.3125 136.289062 278.449219 C 135.589844 278.03125 134.9375 277.640625 134.328125 277.277344 C 134.023438 277.09375 133.730469 276.917969 133.449219 276.75 C 133.179688 276.566406 132.917969 276.390625 132.667969 276.226562 C 126.121094 271.933594 119.972656 267.0625 114.382812 261.585938 C 108.484375 255.699219 103.332031 249.101562 98.785156 242.105469 C 93.632812 234.015625 89.480469 225.230469 86.761719 215.972656 C 83.929688 206.746094 82.621094 197.058594 82.535156 187.375 C 82.621094 177.691406 83.929688 168.007812 86.761719 158.777344 C 89.480469 149.519531 93.632812 140.738281 98.785156 132.648438 C 103.039062 126.0625 107.875 119.875 113.308594 114.25 C 114.011719 113.480469 114.796875 112.792969 115.542969 112.066406 C 116.304688 111.355469 117.039062 110.617188 117.816406 109.921875 L 120.171875 107.875 L 121.347656 106.847656 L 122.570312 105.875 L 125.011719 103.925781 C 125.839844 103.296875 126.691406 102.699219 127.527344 102.078125 C 129.183594 100.8125 130.945312 99.699219 132.667969 98.527344 C 132.917969 98.359375 133.175781 98.183594 133.449219 98 C 133.730469 97.832031 134.023438 97.65625 134.328125 97.472656 C 134.933594 97.109375 135.589844 96.71875 136.285156 96.300781 C 137.664062 95.4375 139.292969 94.621094 141.050781 93.6875 C 141.496094 93.460938 141.9375 93.210938 142.40625 92.984375 C 142.875 92.765625 143.355469 92.542969 143.84375 92.316406 C 144.820312 91.867188 145.835938 91.398438 146.878906 90.914062 C 149.023438 90.078125 151.257812 89.070312 153.695312 88.292969 C 163.316406 84.800781 175.324219 82.644531 187.375 82.59375 C 199.425781 82.644531 211.433594 84.800781 221.054688 88.292969 C 223.492188 89.070312 225.726562 90.078125 227.871094 90.914062 C 228.914062 91.398438 229.925781 91.867188 230.90625 92.316406 C 231.394531 92.542969 231.875 92.765625 232.34375 92.984375 C 232.8125 93.210938 233.253906 93.460938 233.699219 93.6875 C 235.457031 94.621094 237.085938 95.4375 238.460938 96.300781 C 239.160156 96.71875 239.8125 97.109375 240.421875 97.472656 C 240.726562 97.65625 241.019531 97.832031 241.300781 98 C 241.570312 98.183594 241.832031 98.359375 242.082031 98.523438 C 248.628906 102.816406 254.777344 107.6875 260.367188 113.164062 C 266.265625 119.050781 271.417969 125.648438 275.964844 132.644531 C 281.117188 140.734375 285.269531 149.519531 287.988281 158.777344 C 290.820312 168.007812 292.128906 177.691406 292.214844 187.375 C 292.128906 197.058594 290.820312 206.746094 287.988281 215.972656 Z M 294.625 187.304688 L 294.621094 187.296875 C 294.535156 177.40625 293.203125 167.511719 290.324219 158.078125 C 287.550781 148.613281 283.308594 139.628906 278.019531 131.378906 L 275.476562 127.554688 C 275.476562 127.554688 274.738281 126.527344 273.636719 124.984375 C 272.574219 123.410156 270.953125 121.472656 269.398438 119.476562 C 267.726562 117.585938 266.125 115.628906 264.777344 114.296875 C 263.464844 112.929688 262.59375 112.019531 262.59375 112.019531 C 262.59375 112.019531 262.371094 111.792969 261.972656 111.410156 C 261.578125 111.027344 261.011719 110.476562 260.328125 109.820312 C 259 108.464844 257.070312 106.835938 255.179688 105.164062 C 254.210938 104.355469 253.210938 103.585938 252.289062 102.839844 C 251.824219 102.472656 251.378906 102.117188 250.953125 101.777344 C 250.511719 101.460938 250.097656 101.160156 249.710938 100.886719 C 248.175781 99.777344 247.152344 99.039062 247.152344 99.039062 C 247.152344 99.039062 246.929688 98.855469 246.570312 98.621094 C 246.210938 98.382812 245.734375 98.066406 245.257812 97.746094 C 244.304688 97.109375 243.351562 96.472656 243.351562 96.472656 C 243.097656 96.300781 242.832031 96.117188 242.554688 95.933594 C 242.269531 95.757812 241.96875 95.578125 241.660156 95.390625 C 241.035156 95.015625 240.367188 94.613281 239.65625 94.1875 C 238.246094 93.296875 236.582031 92.460938 234.78125 91.503906 C 234.332031 91.269531 233.875 91.011719 233.398438 90.78125 C 232.917969 90.558594 232.425781 90.328125 231.925781 90.097656 C 230.925781 89.632812 229.890625 89.152344 228.820312 88.65625 C 226.628906 87.796875 224.339844 86.769531 221.847656 85.964844 C 212 82.390625 199.703125 80.171875 187.375 80.125 C 175.046875 80.171875 162.75 82.390625 152.902344 85.964844 C 150.410156 86.769531 148.121094 87.796875 145.929688 88.660156 C 144.859375 89.152344 143.824219 89.632812 142.824219 90.097656 C 142.324219 90.332031 141.832031 90.558594 141.351562 90.78125 C 140.875 91.011719 140.417969 91.269531 139.964844 91.503906 C 138.167969 92.460938 136.5 93.296875 135.09375 94.1875 C 134.382812 94.613281 133.714844 95.015625 133.089844 95.390625 C 132.78125 95.578125 132.480469 95.757812 132.195312 95.933594 C 131.917969 96.121094 131.652344 96.300781 131.394531 96.472656 C 131.394531 96.472656 130.445312 97.109375 129.492188 97.746094 C 129.015625 98.066406 128.539062 98.382812 128.179688 98.625 C 127.820312 98.855469 127.597656 99.039062 127.597656 99.039062 C 127.597656 99.039062 126.574219 99.777344 125.039062 100.886719 C 124.652344 101.160156 124.238281 101.460938 123.796875 101.777344 C 123.375 102.117188 122.925781 102.472656 122.460938 102.839844 C 121.539062 103.585938 120.539062 104.355469 119.570312 105.164062 C 117.679688 106.835938 115.75 108.464844 114.421875 109.820312 C 113.742188 110.476562 113.171875 111.027344 112.777344 111.410156 C 112.378906 111.792969 112.15625 112.019531 112.15625 112.019531 C 112.15625 112.019531 111.285156 112.929688 109.972656 114.296875 C 108.625 115.628906 107.023438 117.585938 105.351562 119.476562 C 103.800781 121.472656 102.171875 123.414062 101.113281 124.984375 C 100.007812 126.527344 99.273438 127.554688 99.273438 127.554688 L 96.730469 131.378906 C 91.441406 139.628906 87.199219 148.613281 84.425781 158.078125 C 81.546875 167.511719 80.214844 177.40625 80.128906 187.296875 L 80.125 187.304688 L 80.125 187.445312 L 80.128906 187.453125 C 80.214844 197.34375 81.546875 207.238281 84.425781 216.671875 C 87.199219 226.136719 91.441406 235.121094 96.730469 243.371094 L 99.273438 247.195312 C 99.273438 247.195312 100.011719 248.222656 101.113281 249.765625 C 102.175781 251.339844 103.800781 253.277344 105.351562 255.273438 C 107.023438 257.164062 108.625 259.121094 109.972656 260.453125 C 111.285156 261.820312 112.15625 262.730469 112.15625 262.730469 C 112.15625 262.730469 112.378906 262.957031 112.777344 263.339844 C 113.171875 263.722656 113.742188 264.273438 114.421875 264.929688 C 115.75 266.285156 117.679688 267.914062 119.570312 269.585938 C 120.539062 270.394531 121.539062 271.167969 122.460938 271.910156 C 122.925781 272.277344 123.375 272.632812 123.796875 272.972656 C 124.238281 273.289062 124.652344 273.589844 125.039062 273.863281 C 126.574219 274.972656 127.597656 275.710938 127.597656 275.710938 C 127.597656 275.710938 127.820312 275.894531 128.179688 276.125 C 128.539062 276.367188 129.015625 276.683594 129.492188 277.003906 C 130.445312 277.640625 131.398438 278.28125 131.398438 278.28125 C 131.652344 278.449219 131.917969 278.632812 132.195312 278.820312 C 132.480469 278.992188 132.78125 279.171875 133.089844 279.359375 C 133.714844 279.734375 134.382812 280.136719 135.09375 280.5625 C 136.503906 281.453125 138.167969 282.289062 139.96875 283.246094 C 140.417969 283.480469 140.875 283.738281 141.351562 283.96875 C 141.832031 284.191406 142.324219 284.421875 142.824219 284.652344 C 143.824219 285.117188 144.859375 285.597656 145.929688 286.09375 C 148.121094 286.953125 150.410156 287.980469 152.902344 288.785156 C 162.75 292.359375 175.046875 294.574219 187.375 294.625 C 199.703125 294.574219 212 292.359375 221.847656 288.785156 C 224.339844 287.980469 226.628906 286.953125 228.820312 286.089844 C 229.890625 285.597656 230.925781 285.117188 231.925781 284.652344 C 232.425781 284.417969 232.917969 284.191406 233.398438 283.96875 C 233.878906 283.738281 234.332031 283.480469 234.785156 283.246094 C 236.582031 282.289062 238.25 281.453125 239.65625 280.5625 C 240.367188 280.136719 241.035156 279.734375 241.660156 279.359375 C 241.96875 279.171875 242.269531 278.992188 242.554688 278.820312 C 242.832031 278.628906 243.101562 278.449219 243.355469 278.28125 C 243.355469 278.28125 244.304688 277.640625 245.257812 277.003906 C 245.734375 276.683594 246.210938 276.367188 246.570312 276.125 C 246.929688 275.894531 247.152344 275.710938 247.152344 275.710938 C 247.152344 275.710938 248.175781 274.972656 249.710938 273.863281 C 250.097656 273.589844 250.511719 273.289062 250.953125 272.972656 C 251.378906 272.632812 251.824219 272.277344 252.289062 271.910156 C 253.210938 271.167969 254.210938 270.394531 255.179688 269.585938 C 257.070312 267.914062 259 266.285156 260.328125 264.929688 C 261.011719 264.273438 261.578125 263.722656 261.972656 263.339844 C 262.371094 262.957031 262.59375 262.730469 262.59375 262.730469 C 262.59375 262.730469 263.464844 261.820312 264.777344 260.453125 C 266.125 259.121094 267.726562 257.164062 269.398438 255.273438 C 270.953125 253.277344 272.578125 251.335938 273.636719 249.765625 C 274.742188 248.222656 275.476562 247.195312 275.476562 247.195312 L 278.019531 243.371094 C 283.308594 235.121094 287.550781 226.136719 290.324219 216.671875 C 293.203125 207.238281 294.535156 197.34375 294.621094 187.453125 L 294.625 187.445312 L 294.625 187.304688 " fill-opacity="1" fill-rule="nonzero"/></g><path fill="#f2dea2" d="M 187.609375 100.390625 C 142.417969 100.390625 105.101562 134.617188 100.820312 179.070312 C 103.613281 176.8125 106.441406 174.292969 109.386719 171.664062 C 112.367188 168.996094 115.449219 166.242188 118.597656 163.699219 C 121.886719 161.011719 138.632812 160.03125 142.597656 163.847656 C 147.585938 168.621094 152.308594 172.964844 156.644531 176.777344 C 156.703125 176.816406 156.765625 176.855469 156.824219 176.90625 C 172.890625 191.042969 181.550781 196.214844 184.203125 197.644531 C 190.328125 193.996094 199.246094 193.945312 204.347656 199.5 C 207.632812 198.789062 211.054688 199.242188 214.1875 200.691406 C 213.800781 198.269531 213.960938 195.769531 214.726562 193.460938 C 215.742188 190.382812 218.285156 186.113281 224.621094 183.261719 C 232.019531 179.898438 240.5 180.847656 246.964844 185.027344 C 242.511719 177.824219 236.433594 174.613281 232.550781 173.242188 C 225.988281 170.890625 219.929688 171.449219 216.828125 173.046875 C 216.335938 173.304688 215.917969 173.582031 215.589844 173.871094 C 216.171875 174.5625 216.636719 175.5 216.921875 176.621094 C 217.761719 179.925781 216.777344 184.09375 212.6875 185.941406 C 209.660156 187.304688 206.453125 186.886719 203.882812 184.792969 C 200.3125 181.875 198.800781 176.464844 200.027344 171 C 201.875 162.734375 207.730469 158.476562 212.320312 156.363281 C 219.664062 152.984375 228.9375 152.75 235.214844 155.710938 C 244.199219 153.347656 254.515625 155.085938 262.976562 160.410156 C 267.003906 162.949219 270.363281 166.15625 272.964844 169.863281 C 264.796875 129.9375 229.722656 100.390625 187.609375 100.390625 Z M 231.046875 196.886719 C 230.558594 196.953125 230.097656 197.09375 229.691406 197.28125 C 229.917969 197.414062 230.144531 197.566406 230.363281 197.734375 C 232.46875 199.367188 233.785156 202.710938 231.988281 206.480469 C 230.871094 208.839844 228.480469 210.476562 225.59375 210.855469 C 225.023438 210.929688 224.453125 210.929688 223.886719 210.898438 C 224.535156 212.457031 224.972656 214.085938 225.179688 215.746094 C 228.488281 215.878906 232.136719 214.144531 234.792969 211.042969 C 237.632812 207.71875 238.59375 203.785156 237.375 200.484375 C 235.898438 197.867188 233.539062 196.511719 231.046875 196.886719 " fill-opacity="1" fill-rule="nonzero"/><path fill="#ffffff" d="M 274.730469 184.878906 C 271.476562 180.253906 264.800781 179.257812 261.164062 180.097656 C 260.128906 180.332031 259.242188 180.660156 258.445312 181.085938 C 255.570312 182.5625 253.878906 185.367188 254.082031 188.253906 C 254.25 190.605469 255.605469 192.382812 257.792969 193.136719 C 259.0625 193.5625 260.375 192.816406 260.976562 191.878906 C 261.511719 191.0625 261.445312 190.285156 260.78125 189.578125 C 260.40625 189.167969 260.21875 188.613281 260.265625 188.058594 C 260.3125 187.5 260.601562 186.996094 261.050781 186.660156 C 263.074219 185.160156 265.855469 185.289062 268.316406 186.992188 C 270.96875 188.828125 273.136719 192.320312 274.246094 197.210938 C 274.59375 194.046875 274.789062 190.847656 274.789062 187.609375 C 274.789062 186.6875 274.761719 185.792969 274.730469 184.878906 Z M 206.367188 181.746094 C 207.351562 182.554688 208.96875 183.320312 211.070312 182.363281 C 212.328125 181.789062 213.058594 180.808594 213.230469 179.4375 C 213.410156 178.007812 212.917969 176.824219 212.617188 176.441406 C 212.132812 176.363281 211.695312 176.121094 211.378906 175.734375 C 210.976562 175.246094 210.835938 174.578125 211.007812 173.960938 C 211.511719 172.179688 212.902344 170.65625 215.027344 169.558594 C 219.574219 167.214844 226.628906 167.132812 233.171875 169.308594 C 239.644531 167.117188 252.890625 168.773438 258.328125 176.84375 C 258.945312 176.621094 259.597656 176.425781 260.296875 176.269531 C 263.445312 175.542969 268.65625 175.753906 273.046875 178.210938 C 270.730469 172.335938 266.546875 167.300781 260.882812 163.734375 C 253.113281 158.847656 243.636719 157.332031 235.558594 159.691406 C 235.0625 159.828125 234.535156 159.78125 234.089844 159.539062 C 228.898438 156.78125 220.441406 156.949219 213.960938 159.929688 C 210.175781 161.671875 205.355469 165.15625 203.863281 171.855469 C 202.828125 176.441406 204.375 180.121094 206.367188 181.746094 Z M 226.238281 186.839844 C 222.246094 188.636719 219.558594 191.347656 218.453125 194.695312 C 217.464844 197.6875 217.789062 201.113281 219.324219 203.851562 C 219.53125 204.1875 219.773438 204.601562 220.058594 204.917969 C 221.375 206.480469 223.191406 207.21875 225.089844 206.957031 C 226.617188 206.757812 227.902344 205.929688 228.4375 204.792969 C 229.359375 202.863281 228.753906 201.457031 227.953125 200.835938 C 227.53125 200.511719 227.160156 200.480469 227.074219 200.542969 C 226.429688 201.089844 225.515625 201.148438 224.792969 200.710938 C 224.074219 200.277344 223.714844 199.429688 223.898438 198.605469 C 224.554688 195.6875 227.140625 193.484375 230.484375 193 C 233.753906 192.527344 238.152344 193.773438 240.847656 198.632812 C 240.859375 198.652344 240.863281 198.671875 240.875 198.6875 C 240.875 198.691406 240.875 198.691406 240.875 198.691406 C 241.070312 199.03125 241.257812 199.367188 241.402344 199.699219 C 243.671875 204.640625 243.644531 210.726562 241.320312 216.359375 C 238.671875 222.777344 233.339844 227.921875 226.214844 230.972656 C 226.46875 232.929688 226.398438 234.867188 226.019531 236.734375 C 230.246094 235.152344 235.332031 235.261719 239.851562 237.214844 C 259.128906 222.527344 254.472656 201.609375 251.25 195.34375 C 246.667969 186.464844 235.445312 182.664062 226.238281 186.839844 Z M 239.347656 241.296875 C 239.289062 241.277344 239.234375 241.261719 239.179688 241.230469 C 233.949219 238.542969 227.292969 239.171875 223.695312 242.691406 L 223.289062 243.132812 C 223.09375 243.464844 222.832031 243.8125 222.53125 244.175781 C 221.828125 245.335938 221.480469 246.710938 221.574219 248.019531 C 221.691406 250.417969 223.039062 252.195312 224.789062 252.289062 C 226.652344 252.300781 227.246094 251.265625 227.457031 250.792969 C 227.730469 250.175781 227.773438 249.320312 227.257812 248.804688 C 226.734375 248.277344 226.550781 247.5 226.785156 246.792969 C 227.019531 246.085938 227.628906 245.578125 228.367188 245.46875 C 229.785156 245.261719 231.140625 245.386719 232.300781 245.808594 C 232.300781 245.808594 232.304688 245.808594 232.304688 245.808594 C 232.328125 245.816406 232.351562 245.828125 232.375 245.835938 C 235.460938 246.871094 237.558594 249.839844 237.910156 253.789062 C 238.058594 255.410156 237.886719 257.296875 237.285156 259.222656 C 240.75 256.820312 244.042969 254.160156 247.148438 251.25 C 245.484375 245.566406 242.050781 242.710938 239.347656 241.296875 Z M 222.09375 230.175781 C 221.722656 228.566406 221.09375 227.007812 220.242188 225.566406 C 219.910156 225 219.882812 224.3125 220.15625 223.722656 C 221.066406 221.800781 221.492188 219.683594 221.382812 217.59375 C 221.28125 213.984375 219.734375 210.359375 217.128906 207.613281 C 213.550781 203.773438 208.609375 202.234375 204.207031 203.582031 C 203.421875 203.84375 202.554688 203.546875 202.054688 202.882812 C 198.3125 197.847656 190.289062 198.121094 185.4375 201.511719 C 182.507812 203.535156 180.886719 206.503906 180.855469 209.894531 C 180.84375 211.925781 181.527344 213.550781 182.738281 214.335938 C 183.644531 214.921875 184.734375 214.976562 185.816406 214.484375 C 186.304688 214.273438 186.742188 213.625 186.921875 212.867188 C 187.101562 212.125 186.957031 211.652344 186.886719 211.566406 C 185.953125 211.230469 185.472656 210.285156 185.695312 209.316406 C 186.503906 205.820312 189.578125 203.558594 193.207031 203.804688 C 196.242188 203.925781 199.691406 205.714844 201.15625 209.328125 C 204.570312 208.558594 208.289062 209.457031 211.296875 211.878906 C 217.285156 216.710938 218.457031 226.089844 213.976562 233.21875 C 211.890625 236.492188 208.894531 239.011719 205.0625 240.722656 C 201.964844 242.09375 198.734375 242.691406 195.484375 242.691406 C 194.804688 242.691406 194.121094 242.664062 193.4375 242.609375 C 198.335938 244.664062 203.738281 246.1875 209.476562 246.625 L 209.796875 246.625 C 213.375 246.625 216.953125 244.839844 219.367188 241.839844 C 219.632812 241.441406 219.882812 241.085938 220.15625 240.769531 C 222.246094 237.679688 222.933594 233.917969 222.09375 230.175781 Z M 161.894531 240.730469 C 161.171875 242.261719 160.246094 243.605469 159.136719 244.734375 C 159.988281 245.464844 160.996094 246.351562 162.140625 247.359375 C 167.851562 252.386719 176.480469 259.980469 185.398438 265.882812 L 185.796875 266.152344 C 191.734375 270.113281 196.867188 273.539062 201.957031 273.601562 C 205.558594 273.007812 209.105469 272.175781 212.582031 271.136719 C 205.933594 270.050781 198.582031 266.769531 190.21875 261.230469 C 180.082031 254.515625 168.78125 246.023438 161.894531 240.730469 Z M 168.863281 225.816406 C 168.875 225.828125 168.890625 225.839844 168.898438 225.847656 C 168.902344 225.851562 168.90625 225.855469 168.90625 225.855469 C 169.496094 226.445312 170.019531 226.972656 170.578125 227.496094 C 170.578125 227.496094 170.582031 227.496094 170.582031 227.496094 C 170.589844 227.503906 170.597656 227.511719 170.605469 227.515625 C 170.605469 227.519531 170.609375 227.519531 170.609375 227.519531 C 170.617188 227.523438 170.621094 227.53125 170.628906 227.535156 C 179.34375 235.355469 192.539062 241.960938 203.464844 237.136719 C 206.574219 235.746094 208.996094 233.722656 210.652344 231.125 C 214.089844 225.65625 213.292969 218.539062 208.835938 214.933594 C 205.855469 212.542969 202.648438 212.683594 200.65625 213.617188 C 198.433594 214.695312 197.269531 216.765625 197.570312 219.132812 C 197.8125 221.09375 198.8125 222.335938 200.253906 222.453125 C 201.226562 222.578125 202.46875 222 202.890625 220.585938 C 203.136719 219.746094 203.910156 219.265625 204.792969 219.179688 C 205.671875 219.195312 206.4375 219.785156 206.667969 220.632812 C 207.464844 223.582031 206.351562 226.738281 203.6875 229.074219 C 200.351562 232.003906 194.1875 233.796875 187.953125 231.203125 C 179.515625 227.675781 173.671875 220.652344 168.515625 214.460938 C 167.980469 213.816406 167.457031 213.191406 166.945312 212.582031 C 168.042969 216.589844 167.984375 220.382812 166.707031 223.585938 C 167.421875 224.359375 168.132812 225.113281 168.863281 225.816406 Z M 143.667969 204.152344 C 151.519531 206.179688 156.800781 211.140625 158.160156 217.765625 C 158.371094 218.824219 157.691406 219.867188 156.625 220.082031 C 156.5625 220.09375 156.496094 220.09375 156.429688 220.101562 C 156.363281 220.109375 156.300781 220.121094 156.234375 220.121094 C 156.226562 220.121094 156.222656 220.117188 156.214844 220.117188 C 156.203125 220.117188 156.191406 220.117188 156.179688 220.113281 C 156.15625 220.117188 156.144531 220.121094 156.121094 220.121094 C 155.167969 220.207031 154.78125 221.535156 154.746094 221.695312 C 154.503906 222.835938 154.734375 225.019531 157.105469 225.953125 C 158.359375 226.425781 159.472656 226.066406 160.183594 225.6875 C 161.152344 225.164062 162.023438 224.246094 162.628906 223.113281 C 162.644531 223.085938 162.648438 223.050781 162.664062 223.019531 C 163.640625 221.152344 165.402344 215.914062 160.582031 207.597656 C 160.011719 206.617188 159.375 205.71875 158.683594 204.925781 C 158.679688 204.921875 158.675781 204.917969 158.671875 204.914062 C 158.664062 204.90625 158.65625 204.902344 158.652344 204.894531 C 150.589844 195.265625 133.144531 191.699219 118.082031 196.621094 C 112.269531 198.519531 106.957031 201.527344 102.25 205.535156 C 102.976562 209.03125 103.925781 212.503906 105.101562 215.910156 C 116.871094 204.058594 133.039062 201.390625 143.667969 204.152344 Z M 159.523438 229.992188 C 159.125 230.054688 158.726562 230.09375 158.332031 230.09375 C 157.433594 230.09375 156.550781 229.9375 155.699219 229.617188 C 151.484375 227.964844 150.265625 223.9375 150.902344 220.894531 C 151.144531 219.726562 151.640625 218.753906 152.308594 217.988281 C 146.519531 214.652344 139.964844 213.542969 133.335938 214.664062 C 138.011719 215.40625 142.339844 217.359375 145.808594 220.445312 C 150.960938 225.027344 153.195312 231.410156 151.785156 237.53125 C 151.578125 238.429688 150.730469 238.871094 149.84375 239.050781 C 148.917969 239.039062 148.128906 238.382812 147.945312 237.476562 C 147.777344 236.644531 146.996094 236.3125 146.378906 236.277344 C 145.964844 236.21875 144.574219 236.316406 143.964844 238.203125 C 143.46875 239.714844 143.917969 240.964844 144.375 241.753906 C 145.542969 243.886719 147.960938 245.03125 150.597656 244.683594 C 152.261719 244.492188 153.722656 243.964844 154.972656 243.121094 C 156.929688 241.796875 158.320312 239.75 159.09375 237.054688 C 159.675781 234.941406 159.816406 232.523438 159.523438 229.992188 Z M 108.449219 180.6875 C 109.65625 180.898438 110.660156 181.4375 111.425781 182.246094 C 115.882812 178.375 120.0625 176.792969 123.144531 177.90625 C 123.851562 178.160156 124.464844 178.558594 124.972656 179.074219 C 127.234375 176.265625 129.597656 174.882812 132.132812 174.863281 L 132.191406 174.863281 C 135.144531 174.863281 137.949219 176.746094 140.71875 180.605469 C 141.796875 179.671875 143.085938 179.136719 144.535156 179.054688 C 146.777344 178.941406 149.101562 179.898438 151.25 181.289062 C 151.265625 180.832031 151.308594 180.386719 151.429688 179.964844 C 151.578125 179.433594 151.855469 178.8125 152.347656 178.214844 C 148.441406 174.734375 144.269531 170.882812 139.878906 166.683594 C 137.671875 164.558594 123.207031 165.003906 121.070312 166.746094 C 117.996094 169.234375 114.949219 171.953125 112 174.589844 C 109.511719 176.8125 107.105469 178.960938 104.710938 180.953125 C 106.007812 180.613281 107.296875 180.484375 108.449219 180.6875 Z M 148.226562 232.671875 C 147.902344 229.273438 146.171875 226.023438 143.195312 223.378906 C 138.652344 219.335938 130.289062 216.277344 120.402344 219.75 C 116.78125 222.039062 113.464844 224.945312 110.519531 228.386719 C 111.277344 229.8125 112.007812 231.105469 112.730469 232.308594 C 117.234375 227.566406 123.8125 225.640625 128.796875 225.886719 C 133.667969 226.136719 137.539062 228.253906 139.425781 231.710938 C 139.703125 232.222656 139.738281 232.839844 139.519531 233.382812 C 139.300781 233.929688 138.847656 234.34375 138.289062 234.519531 C 136.046875 235.230469 135.609375 236.847656 135.542969 237.742188 C 135.429688 239.289062 136.234375 240.796875 137.496094 241.445312 C 137.527344 241.460938 137.558594 241.476562 137.585938 241.492188 C 138.308594 241.820312 139.167969 241.871094 140.113281 241.644531 C 139.703125 240.132812 139.726562 238.527344 140.230469 236.984375 C 141.199219 234.007812 143.761719 232.1875 146.601562 232.355469 C 147.167969 232.386719 147.714844 232.496094 148.226562 232.671875 " fill-opacity="1" fill-rule="nonzero"/><path fill="#27498c" d="M 266.082031 190.21875 C 265.871094 190.074219 265.542969 189.867188 265.160156 189.722656 C 265.457031 191.144531 265.164062 192.652344 264.265625 194.023438 C 263.628906 195.007812 262.765625 195.789062 261.785156 196.328125 C 264.335938 198.980469 266.144531 202.894531 267.019531 207.761719 C 267.914062 212.671875 267.789062 218.613281 266.425781 224.886719 C 267.296875 223.035156 268.117188 221.148438 268.859375 219.222656 C 268.871094 219.167969 268.878906 219.117188 268.894531 219.066406 C 274.011719 201.34375 269.289062 192.445312 266.082031 190.21875 Z M 239.808594 172.382812 C 243.558594 174.679688 247.664062 178.28125 250.878906 183.882812 C 251.660156 181.867188 253.03125 180.070312 254.859375 178.714844 C 251.59375 174.179688 244.984375 172.46875 239.808594 172.382812 Z M 231.050781 252.375 C 229.960938 254.871094 227.496094 256.304688 224.59375 256.210938 C 221.414062 256.035156 218.871094 253.683594 217.984375 250.359375 C 216.214844 250.566406 214.484375 250.667969 212.785156 250.667969 C 211.757812 250.667969 210.738281 250.628906 209.71875 250.558594 L 209.363281 250.558594 C 209.359375 250.558594 209.351562 250.554688 209.347656 250.554688 C 209.304688 250.554688 209.257812 250.554688 209.21875 250.554688 C 209.210938 250.554688 209.210938 250.550781 209.207031 250.550781 C 208.925781 250.546875 208.621094 250.53125 208.355469 250.480469 C 208.324219 250.476562 208.304688 250.460938 208.273438 250.453125 C 203.242188 249.972656 198.46875 248.75 194.058594 247.085938 C 202.4375 253.214844 211.320312 258.289062 219.148438 259.410156 C 225.042969 260.273438 229.210938 258.910156 230.839844 255.5625 C 231.511719 254.195312 231.621094 252.683594 231.378906 251.40625 C 231.292969 251.734375 231.191406 252.054688 231.050781 252.375 Z M 200.785156 226.386719 C 200.503906 226.402344 200.21875 226.390625 199.925781 226.363281 C 197.394531 226.152344 194.246094 224.257812 193.671875 219.617188 C 193.230469 216.082031 194.714844 212.851562 197.597656 210.867188 C 196.835938 208.871094 194.8125 207.796875 193.050781 207.726562 C 192.449219 207.675781 190.835938 207.765625 189.964844 209.121094 C 190.550781 209.863281 190.894531 210.847656 190.933594 211.980469 C 191.007812 214.210938 189.824219 217.019531 187.414062 218.074219 C 185.125 219.109375 182.628906 218.949219 180.59375 217.628906 C 178.242188 216.097656 176.902344 213.261719 176.929688 209.859375 C 176.960938 206.175781 178.351562 202.867188 180.863281 200.273438 C 177.011719 198.019531 168.824219 192.597656 155.3125 180.796875 C 155.246094 180.894531 155.222656 180.980469 155.207031 181.039062 C 154.949219 181.941406 155.59375 184.207031 158.253906 187.617188 C 158.53125 187.921875 158.894531 188.363281 159.261719 188.804688 C 159.949219 189.644531 159.835938 190.894531 159 191.582031 C 158.632812 191.886719 158.1875 192.039062 157.746094 192.039062 C 157.1875 192.039062 156.632812 191.796875 156.25 191.328125 L 156.226562 191.300781 C 155.894531 190.898438 155.570312 190.5 155.238281 190.132812 C 155.234375 190.128906 155.230469 190.125 155.226562 190.117188 C 155.226562 190.117188 155.222656 190.113281 155.222656 190.109375 C 151.277344 185.5625 147.289062 182.8125 144.757812 182.972656 C 144 183.019531 143.398438 183.359375 142.878906 184.015625 C 143.378906 184.894531 143.867188 185.800781 144.332031 186.75 C 144.808594 187.726562 144.40625 188.898438 143.429688 189.375 C 142.464844 189.847656 141.277344 189.445312 140.804688 188.46875 C 140.09375 187.015625 139.339844 185.65625 138.554688 184.425781 C 136.238281 180.734375 134.039062 178.789062 132.1875 178.789062 L 132.167969 178.789062 C 130.394531 178.804688 128.367188 180.617188 126.300781 184.03125 C 125.863281 184.761719 125.019531 185.132812 124.175781 184.929688 C 123.351562 184.730469 122.738281 184.03125 122.664062 183.183594 C 122.550781 181.867188 121.980469 181.664062 121.792969 181.589844 C 120.308594 181.046875 116.71875 182.410156 112.378906 186.726562 C 110.660156 188.40625 108.910156 190.476562 107.171875 192.882812 C 106.785156 193.414062 106.183594 193.695312 105.578125 193.695312 C 105.175781 193.695312 104.777344 193.578125 104.425781 193.324219 C 103.546875 192.691406 103.347656 191.460938 103.984375 190.582031 C 105.523438 188.460938 107.070312 186.585938 108.609375 184.972656 C 108.378906 184.722656 108.101562 184.613281 107.769531 184.554688 C 105.664062 184.199219 101.878906 186.164062 100.394531 187.734375 C 100.402344 192.296875 100.757812 196.78125 101.441406 201.128906 C 105.964844 197.59375 110.972656 194.886719 116.382812 193.058594 C 118.605469 190.730469 120.304688 187.765625 120.320312 187.738281 C 120.855469 186.792969 122.054688 186.464844 122.996094 187 C 123.941406 187.539062 124.269531 188.734375 123.734375 189.675781 C 123.703125 189.742188 123.308594 190.417969 122.667969 191.390625 C 137.59375 188.472656 153.089844 192.542969 161.316406 201.976562 C 164.8125 203.882812 167.933594 207.621094 171.535156 211.945312 C 176.402344 217.792969 181.917969 224.425781 189.464844 227.582031 C 193.9375 229.441406 198.296875 228.34375 200.785156 226.386719 Z M 165.757812 196.625 C 165.371094 197.125 164.789062 197.386719 164.207031 197.386719 C 163.78125 197.386719 163.363281 197.253906 163.003906 196.976562 C 162.375 196.488281 162.027344 196.140625 162.027344 196.140625 C 161.273438 195.371094 161.277344 194.128906 162.042969 193.363281 C 162.808594 192.609375 164.042969 192.609375 164.796875 193.355469 C 164.839844 193.390625 165.050781 193.597656 165.40625 193.871094 C 166.261719 194.535156 166.421875 195.769531 165.757812 196.625 Z M 135.75 244.964844 C 133.386719 243.621094 131.105469 242.59375 128.894531 241.878906 C 135.25 246.230469 141.210938 253.113281 146.417969 259.132812 C 149.582031 262.792969 152.566406 266.234375 155.128906 268.53125 C 160.457031 270.667969 165.9375 272.253906 171.53125 273.296875 C 166.332031 270.304688 160.890625 266 154.867188 260.175781 C 147.351562 252.921875 141.273438 248.085938 135.75 244.964844 Z M 131.621094 237.460938 C 131.789062 235.183594 132.890625 233.257812 134.675781 231.976562 C 133.246094 230.707031 131.132812 229.9375 128.601562 229.816406 C 124.25 229.585938 118.523438 231.375 114.917969 235.761719 C 115.273438 236.304688 115.632812 236.835938 116.003906 237.355469 C 121 236.179688 126.160156 236.613281 131.628906 238.675781 C 131.601562 238.273438 131.597656 237.871094 131.621094 237.460938 " fill-opacity="1" fill-rule="nonzero"/><path fill="#0477bf" d="M 263.160156 208.457031 C 262.132812 202.769531 259.617188 198.628906 256.265625 197.09375 C 256.230469 197.082031 256.199219 197.070312 256.171875 197.054688 C 259.210938 206.316406 260.804688 225.222656 243.527344 239.324219 C 246.480469 241.488281 248.757812 244.511719 250.203125 248.160156 C 261.792969 235.070312 265.085938 219.097656 263.160156 208.457031 Z M 225.527344 219.683594 C 225.433594 219.683594 225.339844 219.667969 225.246094 219.667969 C 225.105469 221.292969 224.738281 222.914062 224.121094 224.457031 C 224.570312 225.308594 224.945312 226.1875 225.269531 227.089844 C 231.136719 224.421875 235.511719 220.140625 237.691406 214.859375 C 237.964844 214.191406 238.191406 213.515625 238.390625 212.835938 C 238.191406 213.09375 237.992188 213.347656 237.777344 213.59375 C 234.476562 217.453125 229.886719 219.683594 225.527344 219.683594 Z M 222.378906 263.585938 C 221.222656 263.589844 219.960938 263.5 218.585938 263.300781 C 207.289062 261.679688 193.128906 252.871094 174.027344 235.585938 C 173.964844 235.535156 173.921875 235.5 173.871094 235.453125 C 171.902344 233.9375 169.960938 232.285156 167.933594 230.394531 C 167.925781 230.386719 167.917969 230.378906 167.910156 230.371094 C 167.34375 229.84375 166.808594 229.3125 166.277344 228.78125 C 166.203125 228.71875 166.136719 228.648438 166.066406 228.574219 C 165.574219 228.09375 165.082031 227.59375 164.597656 227.082031 C 164.183594 227.546875 163.746094 227.984375 163.265625 228.355469 C 163.730469 231.296875 163.707031 234.164062 163.191406 236.773438 C 169.878906 241.933594 181.789062 250.933594 192.390625 257.953125 C 206.300781 267.179688 216.953125 269.699219 225.917969 265.914062 C 225.941406 265.902344 226.066406 265.839844 226.179688 265.792969 C 226.53125 265.617188 226.886719 265.4375 227.242188 265.242188 C 227.324219 265.1875 227.414062 265.144531 227.503906 265.09375 C 227.515625 265.089844 227.519531 265.089844 227.527344 265.082031 C 230.398438 263.546875 232.144531 261.40625 233.097656 259.242188 C 231.425781 261.277344 228.242188 263.585938 222.378906 263.585938 Z M 183.222656 269.152344 C 174.089844 263.105469 164.988281 255.09375 159.542969 250.308594 C 158.074219 249.011719 156.839844 247.925781 155.890625 247.128906 C 154.425781 247.890625 152.816406 248.378906 151.074219 248.582031 C 150.597656 248.644531 150.128906 248.671875 149.664062 248.671875 C 148.972656 248.671875 148.296875 248.585938 147.636719 248.460938 C 150.710938 250.941406 154 253.882812 157.597656 257.355469 C 170.0625 269.40625 179.703125 274.609375 189.835938 274.746094 L 189.847656 274.746094 C 190.523438 274.738281 191.152344 274.707031 191.738281 274.671875 L 191.738281 274.679688 C 191.878906 274.675781 192.003906 274.671875 192.117188 274.671875 C 189.304688 273.210938 186.5 271.339844 183.617188 269.417969 Z M 151.839844 213.34375 C 149.808594 210.839844 146.695312 208.988281 142.6875 207.953125 C 132.453125 205.3125 116.964844 208.667969 106.636719 220.035156 C 107.238281 221.546875 107.902344 223.074219 108.625 224.605469 C 111.589844 221.355469 114.875 218.578125 118.4375 216.339844 C 118.460938 216.324219 118.484375 216.316406 118.507812 216.304688 C 118.511719 216.304688 118.511719 216.300781 118.515625 216.300781 C 118.53125 216.292969 118.542969 216.285156 118.558594 216.277344 C 118.566406 216.273438 118.570312 216.265625 118.574219 216.261719 C 118.582031 216.253906 118.59375 216.253906 118.601562 216.25 C 129.378906 209.539062 141.605469 208.59375 151.839844 213.34375 Z M 119.25 241.695312 C 126.429688 250.757812 135.269531 258.261719 145.285156 263.816406 C 144.679688 263.125 144.070312 262.425781 143.453125 261.707031 C 136.269531 253.40625 127.601562 243.367188 119.25 241.695312 " fill-opacity="1" fill-rule="nonzero"/><g clip-path="url(#68c447bf92)"><path fill="#112140" d="M 278.714844 187.609375 C 278.714844 186.59375 278.683594 185.601562 278.648438 184.589844 C 278.664062 184.5 278.679688 184.410156 278.679688 184.3125 C 278.679688 184.195312 278.65625 184.074219 278.632812 183.960938 C 276.691406 134.894531 236.710938 96.464844 187.609375 96.464844 C 138.875 96.464844 98.890625 134.558594 96.589844 183.15625 C 96.503906 184.421875 96.464844 185.722656 96.464844 186.980469 L 96.464844 187.609375 C 96.464844 193.621094 97.035156 199.519531 98.148438 205.140625 C 99.136719 210.277344 100.609375 215.386719 102.519531 220.304688 C 103.609375 223.179688 104.921875 226.113281 106.421875 229.035156 C 106.425781 229.042969 106.429688 229.050781 106.433594 229.058594 C 107.992188 232.070312 109.402344 234.515625 110.855469 236.707031 C 111.707031 238.089844 112.648438 239.472656 113.601562 240.746094 C 123.667969 254.746094 137.398438 265.554688 153.296875 272.007812 L 153.296875 272.003906 C 153.3125 272.007812 153.332031 272.019531 153.347656 272.027344 L 153.335938 272.054688 C 164.25 276.472656 175.785156 278.714844 187.609375 278.714844 C 188.394531 278.714844 189.132812 278.714844 189.808594 278.675781 C 190.527344 278.675781 191.289062 278.667969 191.808594 278.597656 C 191.839844 278.597656 191.871094 278.597656 191.898438 278.59375 C 192.28125 278.59375 192.691406 278.589844 193.078125 278.550781 L 193.078125 278.554688 C 196.488281 278.335938 199.546875 277.992188 202.417969 277.507812 C 202.4375 277.503906 202.453125 277.5 202.476562 277.496094 C 202.488281 277.492188 202.5 277.492188 202.511719 277.488281 C 211.183594 276.074219 219.578125 273.390625 227.460938 269.515625 C 227.574219 269.472656 227.800781 269.386719 227.90625 269.320312 C 227.910156 269.316406 227.910156 269.316406 227.914062 269.316406 L 228.886719 268.855469 C 229.042969 268.773438 229.292969 268.652344 229.566406 268.445312 C 237.253906 264.496094 244.363281 259.40625 250.703125 253.308594 L 250.695312 253.304688 C 250.851562 253.191406 251.007812 253.0625 251.042969 252.964844 C 260.566406 243.761719 267.808594 232.84375 272.574219 220.523438 L 272.570312 220.519531 C 272.621094 220.394531 272.660156 220.261719 272.6875 220.121094 C 276.679688 209.832031 278.714844 198.898438 278.714844 187.609375 Z M 230.363281 197.734375 C 230.144531 197.566406 229.917969 197.414062 229.691406 197.28125 C 230.097656 197.09375 230.558594 196.953125 231.046875 196.886719 C 233.539062 196.511719 235.898438 197.867188 237.375 200.484375 C 238.59375 203.785156 237.632812 207.71875 234.792969 211.042969 C 232.136719 214.144531 228.488281 215.878906 225.179688 215.746094 C 224.972656 214.085938 224.535156 212.457031 223.886719 210.898438 C 224.453125 210.929688 225.023438 210.929688 225.59375 210.855469 C 228.480469 210.476562 230.871094 208.839844 231.988281 206.480469 C 233.785156 202.710938 232.46875 199.367188 230.363281 197.734375 Z M 225.246094 219.667969 C 225.339844 219.667969 225.433594 219.683594 225.527344 219.683594 C 229.886719 219.683594 234.476562 217.453125 237.777344 213.59375 C 237.992188 213.347656 238.191406 213.09375 238.390625 212.835938 C 238.191406 213.515625 237.964844 214.191406 237.691406 214.859375 C 235.511719 220.140625 231.136719 224.421875 225.269531 227.089844 C 224.945312 226.1875 224.570312 225.308594 224.121094 224.457031 C 224.738281 222.914062 225.105469 221.292969 225.246094 219.667969 Z M 226.214844 230.972656 C 233.339844 227.921875 238.671875 222.777344 241.320312 216.359375 C 243.644531 210.726562 243.671875 204.640625 241.402344 199.699219 C 241.257812 199.367188 241.070312 199.03125 240.875 198.691406 C 240.875 198.691406 240.875 198.691406 240.875 198.6875 C 240.863281 198.671875 240.859375 198.652344 240.847656 198.632812 C 238.152344 193.773438 233.753906 192.527344 230.484375 193 C 227.140625 193.484375 224.554688 195.6875 223.898438 198.605469 C 223.714844 199.429688 224.074219 200.277344 224.792969 200.710938 C 225.515625 201.148438 226.429688 201.089844 227.074219 200.542969 C 227.160156 200.480469 227.53125 200.511719 227.953125 200.835938 C 228.753906 201.457031 229.359375 202.863281 228.4375 204.792969 C 227.902344 205.929688 226.617188 206.757812 225.089844 206.957031 C 223.191406 207.21875 221.375 206.480469 220.058594 204.917969 C 219.773438 204.601562 219.53125 204.1875 219.324219 203.851562 C 217.789062 201.113281 217.464844 197.6875 218.453125 194.695312 C 219.558594 191.347656 222.246094 188.636719 226.238281 186.839844 C 235.445312 182.664062 246.667969 186.464844 251.25 195.34375 C 254.472656 201.609375 259.128906 222.527344 239.851562 237.214844 C 235.332031 235.261719 230.246094 235.152344 226.019531 236.734375 C 226.398438 234.867188 226.46875 232.929688 226.214844 230.972656 Z M 220.15625 240.769531 C 219.882812 241.085938 219.632812 241.441406 219.367188 241.839844 C 216.953125 244.839844 213.375 246.625 209.796875 246.625 L 209.476562 246.625 C 203.738281 246.1875 198.335938 244.664062 193.4375 242.609375 C 194.121094 242.664062 194.804688 242.691406 195.484375 242.691406 C 198.734375 242.691406 201.964844 242.09375 205.0625 240.722656 C 208.894531 239.011719 211.890625 236.492188 213.976562 233.21875 C 218.457031 226.089844 217.285156 216.710938 211.296875 211.878906 C 208.289062 209.457031 204.570312 208.558594 201.15625 209.328125 C 199.691406 205.714844 196.242188 203.925781 193.207031 203.804688 C 189.578125 203.558594 186.503906 205.820312 185.695312 209.316406 C 185.472656 210.285156 185.953125 211.230469 186.886719 211.566406 C 186.957031 211.652344 187.101562 212.125 186.921875 212.867188 C 186.742188 213.625 186.304688 214.273438 185.816406 214.484375 C 184.734375 214.976562 183.644531 214.921875 182.738281 214.335938 C 181.527344 213.550781 180.84375 211.925781 180.855469 209.894531 C 180.886719 206.503906 182.507812 203.535156 185.4375 201.511719 C 190.289062 198.121094 198.3125 197.847656 202.054688 202.882812 C 202.554688 203.546875 203.421875 203.84375 204.207031 203.582031 C 208.609375 202.234375 213.550781 203.773438 217.128906 207.613281 C 219.734375 210.359375 221.28125 213.984375 221.382812 217.59375 C 221.492188 219.683594 221.066406 221.800781 220.15625 223.722656 C 219.882812 224.3125 219.910156 225 220.242188 225.566406 C 221.09375 227.007812 221.722656 228.566406 222.09375 230.175781 C 222.933594 233.917969 222.246094 237.679688 220.15625 240.769531 Z M 224.59375 256.210938 C 227.496094 256.304688 229.960938 254.871094 231.050781 252.375 C 231.191406 252.054688 231.292969 251.734375 231.378906 251.40625 C 231.621094 252.683594 231.511719 254.195312 230.839844 255.5625 C 229.210938 258.910156 225.042969 260.273438 219.148438 259.410156 C 211.320312 258.289062 202.4375 253.214844 194.058594 247.085938 C 198.46875 248.75 203.242188 249.972656 208.273438 250.453125 C 208.304688 250.460938 208.324219 250.476562 208.355469 250.480469 C 208.621094 250.53125 208.925781 250.546875 209.207031 250.550781 C 209.210938 250.550781 209.210938 250.554688 209.21875 250.554688 C 209.257812 250.554688 209.304688 250.554688 209.347656 250.554688 C 209.351562 250.554688 209.359375 250.558594 209.363281 250.558594 L 209.71875 250.558594 C 210.738281 250.628906 211.757812 250.667969 212.785156 250.667969 C 214.484375 250.667969 216.214844 250.566406 217.984375 250.359375 C 218.871094 253.683594 221.414062 256.035156 224.59375 256.210938 Z M 166.945312 212.582031 C 167.457031 213.191406 167.980469 213.816406 168.515625 214.460938 C 173.671875 220.652344 179.515625 227.675781 187.953125 231.203125 C 194.1875 233.796875 200.351562 232.003906 203.6875 229.074219 C 206.351562 226.738281 207.464844 223.582031 206.667969 220.632812 C 206.4375 219.785156 205.671875 219.195312 204.792969 219.179688 C 203.910156 219.265625 203.136719 219.746094 202.890625 220.585938 C 202.46875 222 201.226562 222.578125 200.253906 222.453125 C 198.8125 222.335938 197.8125 221.09375 197.570312 219.132812 C 197.269531 216.765625 198.433594 214.695312 200.65625 213.617188 C 202.648438 212.683594 205.855469 212.542969 208.835938 214.933594 C 213.292969 218.539062 214.089844 225.65625 210.652344 231.125 C 208.996094 233.722656 206.574219 235.746094 203.464844 237.136719 C 192.539062 241.960938 179.34375 235.355469 170.628906 227.535156 C 170.621094 227.53125 170.617188 227.523438 170.609375 227.519531 C 170.609375 227.519531 170.605469 227.519531 170.605469 227.515625 C 170.597656 227.511719 170.589844 227.503906 170.582031 227.496094 C 170.582031 227.496094 170.578125 227.496094 170.578125 227.496094 C 170.019531 226.972656 169.496094 226.445312 168.90625 225.855469 C 168.90625 225.855469 168.902344 225.851562 168.898438 225.847656 C 168.890625 225.839844 168.875 225.828125 168.863281 225.816406 C 168.132812 225.113281 167.421875 224.359375 166.707031 223.585938 C 167.984375 220.382812 168.042969 216.589844 166.945312 212.582031 Z M 250.878906 183.882812 C 247.664062 178.28125 243.558594 174.679688 239.808594 172.382812 C 244.984375 172.46875 251.59375 174.179688 254.859375 178.714844 C 253.03125 180.070312 251.660156 181.867188 250.878906 183.882812 Z M 233.171875 169.308594 C 226.628906 167.132812 219.574219 167.214844 215.027344 169.558594 C 212.902344 170.65625 211.511719 172.179688 211.007812 173.960938 C 210.835938 174.578125 210.976562 175.246094 211.378906 175.734375 C 211.695312 176.121094 212.132812 176.363281 212.617188 176.441406 C 212.917969 176.824219 213.410156 178.007812 213.230469 179.4375 C 213.058594 180.808594 212.328125 181.789062 211.070312 182.363281 C 208.96875 183.320312 207.351562 182.554688 206.367188 181.746094 C 204.375 180.121094 202.828125 176.441406 203.863281 171.855469 C 205.355469 165.15625 210.175781 161.671875 213.960938 159.929688 C 220.441406 156.949219 228.898438 156.78125 234.089844 159.539062 C 234.535156 159.78125 235.0625 159.828125 235.558594 159.691406 C 243.636719 157.332031 253.113281 158.847656 260.882812 163.734375 C 266.546875 167.300781 270.730469 172.335938 273.046875 178.210938 C 268.65625 175.753906 263.445312 175.542969 260.296875 176.269531 C 259.597656 176.425781 258.945312 176.621094 258.328125 176.84375 C 252.890625 168.773438 239.644531 167.117188 233.171875 169.308594 Z M 187.609375 100.390625 C 229.722656 100.390625 264.796875 129.9375 272.964844 169.863281 C 270.363281 166.15625 267.003906 162.949219 262.976562 160.410156 C 254.515625 155.085938 244.199219 153.347656 235.214844 155.710938 C 228.9375 152.75 219.664062 152.984375 212.320312 156.363281 C 207.730469 158.476562 201.875 162.734375 200.027344 171 C 198.800781 176.464844 200.3125 181.875 203.882812 184.792969 C 206.453125 186.886719 209.660156 187.304688 212.6875 185.941406 C 216.777344 184.09375 217.761719 179.925781 216.921875 176.621094 C 216.636719 175.5 216.171875 174.5625 215.589844 173.871094 C 215.917969 173.582031 216.335938 173.304688 216.828125 173.046875 C 219.929688 171.449219 225.988281 170.890625 232.550781 173.242188 C 236.433594 174.613281 242.511719 177.824219 246.964844 185.027344 C 240.5 180.847656 232.019531 179.898438 224.621094 183.261719 C 218.285156 186.113281 215.742188 190.382812 214.726562 193.460938 C 213.960938 195.769531 213.800781 198.269531 214.1875 200.691406 C 211.054688 199.242188 207.632812 198.789062 204.347656 199.5 C 199.246094 193.945312 190.328125 193.996094 184.203125 197.644531 C 181.550781 196.214844 172.890625 191.042969 156.824219 176.90625 C 156.765625 176.855469 156.703125 176.816406 156.644531 176.777344 C 152.308594 172.964844 147.585938 168.621094 142.597656 163.847656 C 138.632812 160.03125 121.886719 161.011719 118.597656 163.699219 C 115.449219 166.242188 112.367188 168.996094 109.386719 171.664062 C 106.441406 174.292969 103.613281 176.8125 100.820312 179.070312 C 105.101562 134.617188 142.417969 100.390625 187.609375 100.390625 Z M 152.347656 178.214844 C 151.855469 178.8125 151.578125 179.433594 151.429688 179.964844 C 151.308594 180.386719 151.265625 180.832031 151.25 181.289062 C 149.101562 179.898438 146.777344 178.941406 144.535156 179.054688 C 143.085938 179.136719 141.796875 179.671875 140.71875 180.605469 C 137.949219 176.746094 135.144531 174.863281 132.191406 174.863281 L 132.132812 174.863281 C 129.597656 174.882812 127.234375 176.265625 124.972656 179.074219 C 124.464844 178.558594 123.851562 178.160156 123.144531 177.90625 C 120.0625 176.792969 115.882812 178.375 111.425781 182.246094 C 110.660156 181.4375 109.65625 180.898438 108.449219 180.6875 C 107.296875 180.484375 106.007812 180.613281 104.710938 180.953125 C 107.105469 178.960938 109.511719 176.8125 112 174.589844 C 114.949219 171.953125 117.996094 169.234375 121.070312 166.746094 C 123.207031 165.003906 137.671875 164.558594 139.878906 166.683594 C 144.269531 170.882812 148.441406 174.734375 152.347656 178.214844 Z M 100.394531 187.734375 C 101.878906 186.164062 105.664062 184.199219 107.769531 184.554688 C 108.101562 184.613281 108.378906 184.722656 108.609375 184.972656 C 107.070312 186.585938 105.523438 188.460938 103.984375 190.582031 C 103.347656 191.460938 103.546875 192.691406 104.425781 193.324219 C 104.777344 193.578125 105.175781 193.695312 105.578125 193.695312 C 106.183594 193.695312 106.785156 193.414062 107.171875 192.882812 C 108.910156 190.476562 110.660156 188.40625 112.378906 186.726562 C 116.71875 182.410156 120.308594 181.046875 121.792969 181.589844 C 121.980469 181.664062 122.550781 181.867188 122.664062 183.183594 C 122.738281 184.03125 123.351562 184.730469 124.175781 184.929688 C 125.019531 185.132812 125.863281 184.761719 126.300781 184.03125 C 128.367188 180.617188 130.394531 178.804688 132.167969 178.789062 L 132.1875 178.789062 C 134.039062 178.789062 136.238281 180.734375 138.554688 184.425781 C 139.339844 185.65625 140.09375 187.015625 140.804688 188.46875 C 141.277344 189.445312 142.464844 189.847656 143.429688 189.375 C 144.40625 188.898438 144.808594 187.726562 144.332031 186.75 C 143.867188 185.800781 143.378906 184.894531 142.878906 184.015625 C 143.398438 183.359375 144 183.019531 144.757812 182.972656 C 147.289062 182.8125 151.277344 185.5625 155.222656 190.109375 C 155.222656 190.113281 155.226562 190.117188 155.226562 190.117188 C 155.230469 190.125 155.234375 190.128906 155.238281 190.132812 C 155.570312 190.5 155.894531 190.898438 156.226562 191.300781 L 156.25 191.328125 C 156.632812 191.796875 157.1875 192.039062 157.746094 192.039062 C 158.1875 192.039062 158.632812 191.886719 159 191.582031 C 159.835938 190.894531 159.949219 189.644531 159.261719 188.804688 C 158.894531 188.363281 158.53125 187.921875 158.253906 187.617188 C 155.59375 184.207031 154.949219 181.941406 155.207031 181.039062 C 155.222656 180.980469 155.246094 180.894531 155.3125 180.796875 C 168.824219 192.597656 177.011719 198.019531 180.863281 200.273438 C 178.351562 202.867188 176.960938 206.175781 176.929688 209.859375 C 176.902344 213.261719 178.242188 216.097656 180.59375 217.628906 C 182.628906 218.949219 185.125 219.109375 187.414062 218.074219 C 189.824219 217.019531 191.007812 214.210938 190.933594 211.980469 C 190.894531 210.847656 190.550781 209.863281 189.964844 209.121094 C 190.835938 207.765625 192.449219 207.675781 193.050781 207.726562 C 194.8125 207.796875 196.835938 208.871094 197.597656 210.867188 C 194.714844 212.851562 193.230469 216.082031 193.671875 219.617188 C 194.246094 224.257812 197.394531 226.152344 199.925781 226.363281 C 200.21875 226.390625 200.503906 226.402344 200.785156 226.386719 C 198.296875 228.34375 193.9375 229.441406 189.464844 227.582031 C 181.917969 224.425781 176.402344 217.792969 171.535156 211.945312 C 167.933594 207.621094 164.8125 203.882812 161.316406 201.976562 C 153.089844 192.542969 137.59375 188.472656 122.667969 191.390625 C 123.308594 190.417969 123.703125 189.742188 123.734375 189.675781 C 124.269531 188.734375 123.941406 187.539062 122.996094 187 C 122.054688 186.464844 120.855469 186.792969 120.320312 187.738281 C 120.304688 187.765625 118.605469 190.730469 116.382812 193.058594 C 110.972656 194.886719 105.964844 197.59375 101.441406 201.128906 C 100.757812 196.78125 100.402344 192.296875 100.394531 187.734375 Z M 105.101562 215.910156 C 103.925781 212.503906 102.976562 209.03125 102.25 205.535156 C 106.957031 201.527344 112.269531 198.519531 118.082031 196.621094 C 133.144531 191.699219 150.589844 195.265625 158.652344 204.894531 C 158.65625 204.902344 158.664062 204.90625 158.671875 204.914062 C 158.675781 204.917969 158.679688 204.921875 158.683594 204.925781 C 159.375 205.71875 160.011719 206.617188 160.582031 207.597656 C 165.402344 215.914062 163.640625 221.152344 162.664062 223.019531 C 162.648438 223.050781 162.644531 223.085938 162.628906 223.113281 C 162.023438 224.246094 161.152344 225.164062 160.183594 225.6875 C 159.472656 226.066406 158.359375 226.425781 157.105469 225.953125 C 154.734375 225.019531 154.503906 222.835938 154.746094 221.695312 C 154.78125 221.535156 155.167969 220.207031 156.121094 220.121094 C 156.144531 220.121094 156.15625 220.117188 156.179688 220.113281 C 156.191406 220.117188 156.203125 220.117188 156.214844 220.117188 C 156.222656 220.117188 156.226562 220.121094 156.234375 220.121094 C 156.300781 220.121094 156.363281 220.109375 156.429688 220.101562 C 156.496094 220.09375 156.5625 220.09375 156.625 220.082031 C 157.691406 219.867188 158.371094 218.824219 158.160156 217.765625 C 156.800781 211.140625 151.519531 206.179688 143.667969 204.152344 C 133.039062 201.390625 116.871094 204.058594 105.101562 215.910156 Z M 145.808594 220.445312 C 142.339844 217.359375 138.011719 215.40625 133.335938 214.664062 C 139.964844 213.542969 146.519531 214.652344 152.308594 217.988281 C 151.640625 218.753906 151.144531 219.726562 150.902344 220.894531 C 150.265625 223.9375 151.484375 227.964844 155.699219 229.617188 C 156.550781 229.9375 157.433594 230.09375 158.332031 230.09375 C 158.726562 230.09375 159.125 230.054688 159.523438 229.992188 C 159.816406 232.523438 159.675781 234.941406 159.09375 237.054688 C 158.320312 239.75 156.929688 241.796875 154.972656 243.121094 C 153.722656 243.964844 152.261719 244.492188 150.597656 244.683594 C 147.960938 245.03125 145.542969 243.886719 144.375 241.753906 C 143.917969 240.964844 143.46875 239.714844 143.964844 238.203125 C 144.574219 236.316406 145.964844 236.21875 146.378906 236.277344 C 146.996094 236.3125 147.777344 236.644531 147.945312 237.476562 C 148.128906 238.382812 148.917969 239.039062 149.84375 239.050781 C 150.730469 238.871094 151.578125 238.429688 151.785156 237.53125 C 153.195312 231.410156 150.960938 225.027344 145.808594 220.445312 Z M 106.636719 220.035156 C 116.964844 208.667969 132.453125 205.3125 142.6875 207.953125 C 146.695312 208.988281 149.808594 210.839844 151.839844 213.34375 C 141.605469 208.59375 129.378906 209.539062 118.601562 216.25 C 118.59375 216.253906 118.582031 216.253906 118.574219 216.261719 C 118.570312 216.265625 118.566406 216.273438 118.558594 216.277344 C 118.542969 216.285156 118.53125 216.292969 118.515625 216.300781 C 118.511719 216.300781 118.511719 216.304688 118.507812 216.304688 C 118.484375 216.316406 118.460938 216.324219 118.4375 216.339844 C 114.875 218.578125 111.589844 221.355469 108.625 224.605469 C 107.902344 223.074219 107.238281 221.546875 106.636719 220.035156 Z M 112.730469 232.308594 C 112.007812 231.105469 111.277344 229.8125 110.519531 228.386719 C 113.464844 224.945312 116.78125 222.039062 120.402344 219.75 C 130.289062 216.277344 138.652344 219.335938 143.195312 223.378906 C 146.171875 226.023438 147.902344 229.273438 148.226562 232.671875 C 147.714844 232.496094 147.167969 232.386719 146.601562 232.355469 C 143.761719 232.1875 141.199219 234.007812 140.230469 236.984375 C 139.726562 238.527344 139.703125 240.132812 140.113281 241.644531 C 139.167969 241.871094 138.308594 241.820312 137.585938 241.492188 C 137.558594 241.476562 137.527344 241.460938 137.496094 241.445312 C 136.234375 240.796875 135.429688 239.289062 135.542969 237.742188 C 135.609375 236.847656 136.046875 235.230469 138.289062 234.519531 C 138.847656 234.34375 139.300781 233.929688 139.519531 233.382812 C 139.738281 232.839844 139.703125 232.222656 139.425781 231.710938 C 137.539062 228.253906 133.667969 226.136719 128.796875 225.886719 C 123.8125 225.640625 117.234375 227.566406 112.730469 232.308594 Z M 114.917969 235.761719 C 118.523438 231.375 124.25 229.585938 128.601562 229.816406 C 131.132812 229.9375 133.246094 230.707031 134.675781 231.976562 C 132.890625 233.257812 131.789062 235.183594 131.621094 237.460938 C 131.597656 237.871094 131.601562 238.273438 131.628906 238.675781 C 126.160156 236.613281 121 236.179688 116.003906 237.355469 C 115.632812 236.835938 115.273438 236.304688 114.917969 235.761719 Z M 119.25 241.695312 C 127.601562 243.367188 136.269531 253.40625 143.453125 261.707031 C 144.070312 262.425781 144.679688 263.125 145.285156 263.816406 C 135.269531 258.261719 126.429688 250.757812 119.25 241.695312 Z M 155.128906 268.53125 C 152.566406 266.234375 149.582031 262.792969 146.417969 259.132812 C 141.210938 253.113281 135.25 246.230469 128.894531 241.878906 C 131.105469 242.59375 133.386719 243.621094 135.75 244.964844 C 141.273438 248.085938 147.351562 252.921875 154.867188 260.175781 C 160.890625 266 166.332031 270.304688 171.53125 273.296875 C 165.9375 272.253906 160.457031 270.667969 155.128906 268.53125 Z M 191.738281 274.679688 L 191.738281 274.671875 C 191.152344 274.707031 190.523438 274.738281 189.847656 274.746094 L 189.835938 274.746094 C 179.703125 274.609375 170.0625 269.40625 157.597656 257.355469 C 154 253.882812 150.710938 250.941406 147.636719 248.460938 C 148.296875 248.585938 148.972656 248.671875 149.664062 248.671875 C 150.128906 248.671875 150.597656 248.644531 151.074219 248.582031 C 152.816406 248.378906 154.425781 247.890625 155.890625 247.128906 C 156.839844 247.925781 158.074219 249.011719 159.542969 250.308594 C 164.988281 255.09375 174.089844 263.105469 183.222656 269.152344 L 183.617188 269.417969 C 186.5 271.339844 189.304688 273.210938 192.117188 274.671875 C 192.003906 274.671875 191.878906 274.675781 191.738281 274.679688 Z M 201.957031 273.601562 C 196.867188 273.539062 191.734375 270.113281 185.796875 266.152344 L 185.398438 265.882812 C 176.480469 259.980469 167.851562 252.386719 162.140625 247.359375 C 160.996094 246.351562 159.988281 245.464844 159.136719 244.734375 C 160.246094 243.605469 161.171875 242.261719 161.894531 240.730469 C 168.78125 246.023438 180.082031 254.515625 190.21875 261.230469 C 198.582031 266.769531 205.933594 270.050781 212.582031 271.136719 C 209.105469 272.175781 205.558594 273.007812 201.957031 273.601562 Z M 227.527344 265.082031 C 227.519531 265.089844 227.515625 265.089844 227.503906 265.09375 C 227.488281 265.101562 227.472656 265.113281 227.457031 265.121094 C 227.386719 265.164062 227.3125 265.199219 227.242188 265.242188 C 226.886719 265.4375 226.53125 265.617188 226.179688 265.792969 C 226.066406 265.839844 225.941406 265.902344 225.917969 265.914062 C 216.953125 269.699219 206.300781 267.179688 192.390625 257.953125 C 181.789062 250.933594 169.878906 241.933594 163.191406 236.773438 C 163.707031 234.164062 163.730469 231.296875 163.265625 228.355469 C 163.746094 227.984375 164.183594 227.546875 164.597656 227.082031 C 165.082031 227.59375 165.574219 228.09375 166.066406 228.574219 C 166.136719 228.648438 166.203125 228.71875 166.277344 228.78125 C 166.808594 229.3125 167.34375 229.84375 167.910156 230.371094 C 167.917969 230.378906 167.925781 230.386719 167.933594 230.394531 C 169.960938 232.285156 171.902344 233.9375 173.871094 235.453125 C 173.921875 235.5 173.964844 235.535156 174.027344 235.585938 C 193.128906 252.871094 207.289062 261.679688 218.585938 263.300781 C 219.960938 263.5 221.222656 263.589844 222.378906 263.585938 C 228.242188 263.585938 231.425781 261.277344 233.097656 259.242188 C 232.144531 261.40625 230.398438 263.546875 227.527344 265.082031 Z M 237.285156 259.222656 C 237.886719 257.296875 238.058594 255.410156 237.910156 253.789062 C 237.558594 249.839844 235.460938 246.871094 232.375 245.835938 C 232.351562 245.828125 232.328125 245.816406 232.304688 245.808594 C 232.304688 245.808594 232.300781 245.808594 232.300781 245.808594 C 231.140625 245.386719 229.785156 245.261719 228.367188 245.46875 C 227.628906 245.578125 227.019531 246.085938 226.785156 246.792969 C 226.550781 247.5 226.734375 248.277344 227.257812 248.804688 C 227.773438 249.320312 227.730469 250.175781 227.457031 250.792969 C 227.246094 251.265625 226.652344 252.300781 224.789062 252.289062 C 223.039062 252.195312 221.691406 250.417969 221.574219 248.019531 C 221.480469 246.710938 221.828125 245.335938 222.53125 244.175781 C 222.832031 243.8125 223.09375 243.464844 223.289062 243.132812 L 223.695312 242.691406 C 227.292969 239.171875 233.949219 238.542969 239.179688 241.230469 C 239.234375 241.261719 239.289062 241.277344 239.347656 241.296875 C 242.050781 242.710938 245.484375 245.566406 247.148438 251.25 C 244.042969 254.160156 240.75 256.820312 237.285156 259.222656 Z M 250.203125 248.160156 C 248.757812 244.511719 246.480469 241.488281 243.527344 239.324219 C 260.804688 225.222656 259.210938 206.316406 256.171875 197.054688 C 256.199219 197.070312 256.230469 197.082031 256.265625 197.09375 C 259.617188 198.628906 262.132812 202.769531 263.160156 208.457031 C 265.085938 219.097656 261.792969 235.070312 250.203125 248.160156 Z M 268.894531 219.066406 C 268.878906 219.117188 268.871094 219.167969 268.859375 219.222656 C 268.117188 221.148438 267.296875 223.035156 266.425781 224.886719 C 267.789062 218.613281 267.914062 212.671875 267.019531 207.761719 C 266.144531 202.894531 264.335938 198.980469 261.785156 196.328125 C 262.765625 195.789062 263.628906 195.007812 264.265625 194.023438 C 265.164062 192.652344 265.457031 191.144531 265.160156 189.722656 C 265.542969 189.867188 265.871094 190.074219 266.082031 190.21875 C 269.289062 192.445312 274.011719 201.34375 268.894531 219.066406 Z M 268.316406 186.992188 C 265.855469 185.289062 263.074219 185.160156 261.050781 186.660156 C 260.601562 186.996094 260.3125 187.5 260.265625 188.058594 C 260.21875 188.613281 260.40625 189.167969 260.78125 189.578125 C 261.445312 190.285156 261.511719 191.0625 260.976562 191.878906 C 260.375 192.816406 259.0625 193.5625 257.792969 193.136719 C 255.605469 192.382812 254.25 190.605469 254.082031 188.253906 C 253.878906 185.367188 255.570312 182.5625 258.445312 181.085938 C 259.242188 180.660156 260.128906 180.332031 261.164062 180.097656 C 264.800781 179.257812 271.476562 180.253906 274.730469 184.878906 C 274.761719 185.792969 274.789062 186.6875 274.789062 187.609375 C 274.789062 190.847656 274.59375 194.046875 274.246094 197.210938 C 273.136719 192.320312 270.96875 188.828125 268.316406 186.992188 Z M 163.003906 196.976562 C 163.363281 197.253906 163.78125 197.386719 164.207031 197.386719 C 164.789062 197.386719 165.371094 197.125 165.757812 196.625 C 166.421875 195.769531 166.261719 194.535156 165.40625 193.871094 C 165.050781 193.597656 164.839844 193.390625 164.796875 193.355469 C 164.042969 192.609375 162.808594 192.609375 162.042969 193.363281 C 161.277344 194.128906 161.273438 195.371094 162.027344 196.140625 C 162.027344 196.140625 162.375 196.488281 163.003906 196.976562 " fill-opacity="1" fill-rule="nonzero"/></g><g fill="#000000" fill-opacity="1"><g transform="translate(107.40195, 126.161043)"><g><path d="M 0.0625 -2.0625 L -7.734375 -8.984375 C -8.046875 -9.253906 -8.210938 -9.585938 -8.234375 -9.984375 C -8.253906 -10.378906 -8.132812 -10.722656 -7.875 -11.015625 L -7.671875 -11.25 C -7.441406 -11.507812 -7.191406 -11.671875 -6.921875 -11.734375 C -6.660156 -11.796875 -6.375 -11.816406 -6.0625 -11.796875 L 3.109375 -11.109375 L -1.9375 -15.609375 C -2.238281 -15.867188 -2.398438 -16.191406 -2.421875 -16.578125 C -2.441406 -16.972656 -2.320312 -17.316406 -2.0625 -17.609375 C -1.800781 -17.910156 -1.472656 -18.070312 -1.078125 -18.09375 C -0.691406 -18.125 -0.347656 -18.007812 -0.046875 -17.75 L 7.75 -10.8125 C 8.050781 -10.550781 8.210938 -10.21875 8.234375 -9.8125 C 8.265625 -9.414062 8.148438 -9.070312 7.890625 -8.78125 L 7.828125 -8.703125 C 7.597656 -8.441406 7.347656 -8.28125 7.078125 -8.21875 C 6.804688 -8.15625 6.507812 -8.128906 6.1875 -8.140625 L -3.296875 -8.84375 L 1.953125 -4.1875 C 2.253906 -3.925781 2.414062 -3.597656 2.4375 -3.203125 C 2.457031 -2.804688 2.332031 -2.460938 2.0625 -2.171875 C 1.800781 -1.867188 1.476562 -1.707031 1.09375 -1.6875 C 0.707031 -1.675781 0.363281 -1.800781 0.0625 -2.0625 Z M 0.0625 -2.0625 "/></g></g></g><g fill="#000000" fill-opacity="1"><g transform="translate(119.282047, 113.164651)"><g><path d="M -0.5 -1.984375 L -3.328125 -12.921875 C -3.441406 -13.296875 -3.445312 -13.648438 -3.34375 -13.984375 C -3.25 -14.316406 -3.046875 -14.609375 -2.734375 -14.859375 L -2.59375 -14.96875 C -2.28125 -15.21875 -1.953125 -15.347656 -1.609375 -15.359375 C -1.273438 -15.367188 -0.929688 -15.285156 -0.578125 -15.109375 L 9.421875 -9.859375 C 9.679688 -9.703125 9.84375 -9.582031 9.90625 -9.5 C 10.15625 -9.1875 10.253906 -8.847656 10.203125 -8.484375 C 10.160156 -8.117188 9.988281 -7.816406 9.6875 -7.578125 C 9.425781 -7.367188 9.148438 -7.265625 8.859375 -7.265625 C 8.578125 -7.265625 8.285156 -7.332031 7.984375 -7.46875 L 6.03125 -8.53125 L 1.5 -4.9375 L 2.140625 -2.6875 C 2.210938 -2.394531 2.203125 -2.113281 2.109375 -1.84375 C 2.023438 -1.582031 1.863281 -1.359375 1.625 -1.171875 C 1.332031 -0.929688 1.003906 -0.832031 0.640625 -0.875 C 0.285156 -0.925781 -0.00390625 -1.097656 -0.234375 -1.390625 C -0.296875 -1.472656 -0.347656 -1.5625 -0.390625 -1.65625 C -0.441406 -1.75 -0.476562 -1.859375 -0.5 -1.984375 Z M 0.75 -7.625 L 3.59375 -9.890625 L -0.515625 -12.125 Z M 0.75 -7.625 "/></g></g></g><g fill="#000000" fill-opacity="1"><g transform="translate(132.88093, 102.675915)"><g><path d="M -3.890625 -12.953125 C -3.546875 -13.148438 -3.179688 -13.191406 -2.796875 -13.078125 C -2.410156 -12.972656 -2.117188 -12.742188 -1.921875 -12.390625 L 1 -7.046875 C 1.53125 -6.078125 2.140625 -5.476562 2.828125 -5.25 C 3.515625 -5.019531 4.253906 -5.125 5.046875 -5.5625 C 5.835938 -5.988281 6.320312 -6.546875 6.5 -7.234375 C 6.6875 -7.929688 6.523438 -8.75 6.015625 -9.6875 L 3.046875 -15.109375 C 2.847656 -15.460938 2.800781 -15.828125 2.90625 -16.203125 C 3.019531 -16.585938 3.253906 -16.875 3.609375 -17.0625 C 3.960938 -17.257812 4.328125 -17.300781 4.703125 -17.1875 C 5.085938 -17.082031 5.378906 -16.851562 5.578125 -16.5 L 8.484375 -11.171875 C 8.960938 -10.304688 9.265625 -9.476562 9.390625 -8.6875 C 9.515625 -7.90625 9.472656 -7.179688 9.265625 -6.515625 C 9.054688 -5.847656 8.695312 -5.234375 8.1875 -4.671875 C 7.6875 -4.117188 7.050781 -3.632812 6.28125 -3.21875 C 4.726562 -2.363281 3.273438 -2.117188 1.921875 -2.484375 C 0.566406 -2.859375 -0.570312 -3.894531 -1.5 -5.59375 L -4.453125 -11 C -4.648438 -11.351562 -4.691406 -11.71875 -4.578125 -12.09375 C -4.460938 -12.476562 -4.234375 -12.765625 -3.890625 -12.953125 Z M -3.890625 -12.953125 "/></g></g></g><g fill="#000000" fill-opacity="1"><g transform="translate(147.880453, 94.717565)"><g><path d="M 3.140625 -15.171875 C 4.085938 -15.492188 4.925781 -15.671875 5.65625 -15.703125 C 6.382812 -15.734375 7.101562 -15.640625 7.8125 -15.421875 C 7.96875 -15.359375 8.140625 -15.253906 8.328125 -15.109375 C 8.515625 -14.972656 8.65625 -14.769531 8.75 -14.5 C 8.875 -14.125 8.847656 -13.757812 8.671875 -13.40625 C 8.492188 -13.0625 8.222656 -12.828125 7.859375 -12.703125 C 7.660156 -12.640625 7.484375 -12.613281 7.328125 -12.625 C 7.171875 -12.632812 7.039062 -12.660156 6.9375 -12.703125 C 6.457031 -12.835938 5.984375 -12.90625 5.515625 -12.90625 C 5.046875 -12.914062 4.507812 -12.820312 3.90625 -12.625 C 3.414062 -12.457031 2.988281 -12.195312 2.625 -11.84375 C 2.269531 -11.488281 1.988281 -11.078125 1.78125 -10.609375 C 1.570312 -10.148438 1.453125 -9.65625 1.421875 -9.125 C 1.398438 -8.601562 1.484375 -8.070312 1.671875 -7.53125 L 1.671875 -7.515625 C 1.867188 -6.941406 2.140625 -6.445312 2.484375 -6.03125 C 2.835938 -5.613281 3.242188 -5.285156 3.703125 -5.046875 C 4.160156 -4.804688 4.648438 -4.664062 5.171875 -4.625 C 5.703125 -4.59375 6.238281 -4.671875 6.78125 -4.859375 C 7.8125 -5.210938 8.582031 -5.75 9.09375 -6.46875 L 8.484375 -8.25 L 6.640625 -7.625 C 6.316406 -7.507812 6 -7.523438 5.6875 -7.671875 C 5.382812 -7.816406 5.175781 -8.050781 5.0625 -8.375 C 4.945312 -8.71875 4.96875 -9.039062 5.125 -9.34375 C 5.28125 -9.65625 5.519531 -9.867188 5.84375 -9.984375 L 8.984375 -11.046875 C 9.359375 -11.171875 9.722656 -11.144531 10.078125 -10.96875 C 10.429688 -10.800781 10.675781 -10.523438 10.8125 -10.140625 L 11.84375 -7.125 C 12.101562 -6.351562 11.972656 -5.664062 11.453125 -5.0625 C 11.066406 -4.570312 10.550781 -4.078125 9.90625 -3.578125 C 9.269531 -3.078125 8.484375 -2.664062 7.546875 -2.34375 C 6.578125 -2.007812 5.640625 -1.863281 4.734375 -1.90625 C 3.828125 -1.945312 2.984375 -2.15625 2.203125 -2.53125 C 1.429688 -2.90625 0.753906 -3.429688 0.171875 -4.109375 C -0.398438 -4.785156 -0.84375 -5.585938 -1.15625 -6.515625 L -1.171875 -6.546875 C -1.472656 -7.429688 -1.59375 -8.3125 -1.53125 -9.1875 C -1.46875 -10.070312 -1.25 -10.90625 -0.875 -11.6875 C -0.5 -12.476562 0.0234375 -13.175781 0.703125 -13.78125 C 1.390625 -14.382812 2.203125 -14.847656 3.140625 -15.171875 Z M 3.140625 -15.171875 "/></g></g></g><g fill="#000000" fill-opacity="1"><g transform="translate(164.527393, 89.320103)"><g><path d="M 1.359375 -1.5625 L -0.265625 -11.90625 C -0.328125 -12.289062 -0.242188 -12.644531 -0.015625 -12.96875 C 0.210938 -13.289062 0.523438 -13.484375 0.921875 -13.546875 C 1.316406 -13.609375 1.675781 -13.519531 2 -13.28125 C 2.332031 -13.039062 2.53125 -12.726562 2.59375 -12.34375 L 3.1875 -8.53125 L 8.421875 -9.359375 L 7.828125 -13.171875 C 7.765625 -13.554688 7.847656 -13.910156 8.078125 -14.234375 C 8.316406 -14.566406 8.632812 -14.765625 9.03125 -14.828125 C 9.425781 -14.890625 9.785156 -14.800781 10.109375 -14.5625 C 10.429688 -14.320312 10.625 -14.007812 10.6875 -13.625 L 12.3125 -3.28125 C 12.375 -2.882812 12.285156 -2.523438 12.046875 -2.203125 C 11.816406 -1.890625 11.503906 -1.703125 11.109375 -1.640625 C 10.710938 -1.578125 10.351562 -1.660156 10.03125 -1.890625 C 9.707031 -2.117188 9.515625 -2.429688 9.453125 -2.828125 L 8.84375 -6.71875 L 3.609375 -5.890625 L 4.21875 -2 C 4.28125 -1.601562 4.191406 -1.242188 3.953125 -0.921875 C 3.710938 -0.609375 3.394531 -0.421875 3 -0.359375 C 2.601562 -0.296875 2.242188 -0.378906 1.921875 -0.609375 C 1.609375 -0.847656 1.421875 -1.164062 1.359375 -1.5625 Z M 1.359375 -1.5625 "/></g></g></g><g fill="#000000" fill-opacity="1"><g transform="translate(181.473982, 86.97311)"><g><path d="M 0.578125 -11.796875 C 0.585938 -12.160156 0.722656 -12.472656 0.984375 -12.734375 C 1.242188 -12.992188 1.554688 -13.117188 1.921875 -13.109375 L 10.359375 -13.078125 C 10.722656 -13.078125 11.035156 -12.945312 11.296875 -12.6875 C 11.554688 -12.425781 11.679688 -12.113281 11.671875 -11.75 C 11.671875 -11.382812 11.539062 -11.070312 11.28125 -10.8125 C 11.019531 -10.550781 10.707031 -10.421875 10.34375 -10.421875 L 7.5625 -10.4375 L 7.515625 -1.296875 C 7.515625 -0.898438 7.375 -0.5625 7.09375 -0.28125 C 6.8125 0 6.472656 0.140625 6.078125 0.140625 C 5.671875 0.140625 5.328125 0 5.046875 -0.28125 C 4.765625 -0.570312 4.625 -0.914062 4.625 -1.3125 L 4.671875 -10.453125 L 1.90625 -10.453125 C 1.539062 -10.460938 1.226562 -10.597656 0.96875 -10.859375 C 0.707031 -11.117188 0.578125 -11.429688 0.578125 -11.796875 Z M 0.578125 -11.796875 "/></g></g></g><g fill="#000000" fill-opacity="1"><g transform="translate(196.520748, 87.237166)"><g><path d="M 2.28125 -11.625 C 2.34375 -12.019531 2.53125 -12.320312 2.84375 -12.53125 C 3.164062 -12.75 3.53125 -12.828125 3.9375 -12.765625 C 4.25 -12.710938 4.503906 -12.585938 4.703125 -12.390625 C 4.898438 -12.203125 5.0625 -11.96875 5.1875 -11.6875 L 7.625 -6.65625 L 11.546875 -10.703125 C 11.753906 -10.929688 11.984375 -11.101562 12.234375 -11.21875 C 12.484375 -11.332031 12.753906 -11.367188 13.046875 -11.328125 C 13.484375 -11.253906 13.800781 -11.066406 14 -10.765625 C 14.207031 -10.472656 14.28125 -10.125 14.21875 -9.71875 C 14.1875 -9.53125 14.117188 -9.359375 14.015625 -9.203125 C 13.921875 -9.046875 13.8125 -8.90625 13.6875 -8.78125 L 8.609375 -3.8125 L 8 -0.0625 C 7.9375 0.332031 7.742188 0.644531 7.421875 0.875 C 7.097656 1.101562 6.742188 1.1875 6.359375 1.125 C 5.953125 1.0625 5.628906 0.867188 5.390625 0.546875 C 5.160156 0.234375 5.078125 -0.117188 5.140625 -0.515625 L 5.734375 -4.203125 L 2.453125 -10.546875 C 2.390625 -10.710938 2.335938 -10.882812 2.296875 -11.0625 C 2.253906 -11.238281 2.25 -11.425781 2.28125 -11.625 Z M 2.28125 -11.625 "/></g></g></g><g fill="#000000" fill-opacity="1"><g transform="translate(212.201928, 90.164493)"><g/></g></g><g fill="#000000" fill-opacity="1"><g transform="translate(220.560223, 92.525779)"><g><path d="M 2.03125 -0.6875 L 6.09375 -10.109375 C 6.25 -10.460938 6.507812 -10.710938 6.875 -10.859375 C 7.238281 -11.003906 7.601562 -11 7.96875 -10.84375 L 12.25 -9 C 12.726562 -8.789062 13.179688 -8.523438 13.609375 -8.203125 C 14.046875 -7.878906 14.394531 -7.507812 14.65625 -7.09375 C 14.925781 -6.6875 15.09375 -6.238281 15.15625 -5.75 C 15.21875 -5.257812 15.125 -4.734375 14.875 -4.171875 L 14.859375 -4.125 C 14.566406 -3.457031 14.175781 -2.984375 13.6875 -2.703125 C 13.195312 -2.421875 12.6875 -2.257812 12.15625 -2.21875 C 12.75 -1.65625 13.144531 -1.054688 13.34375 -0.421875 C 13.550781 0.203125 13.476562 0.914062 13.125 1.71875 L 13.109375 1.765625 C 12.878906 2.304688 12.566406 2.738281 12.171875 3.0625 C 11.773438 3.382812 11.320312 3.59375 10.8125 3.6875 C 10.300781 3.789062 9.734375 3.789062 9.109375 3.6875 C 8.492188 3.59375 7.847656 3.394531 7.171875 3.09375 L 2.765625 1.203125 C 2.398438 1.046875 2.144531 0.78125 2 0.40625 C 1.851562 0.03125 1.863281 -0.332031 2.03125 -0.6875 Z M 6.1875 -3.21875 L 5.03125 -0.578125 L 8.171875 0.765625 C 8.765625 1.023438 9.269531 1.117188 9.6875 1.046875 C 10.113281 0.984375 10.421875 0.726562 10.609375 0.28125 L 10.640625 0.234375 C 10.804688 -0.171875 10.785156 -0.550781 10.578125 -0.90625 C 10.367188 -1.269531 9.921875 -1.601562 9.234375 -1.90625 Z M 7.125 -5.421875 L 9.5625 -4.375 C 10.144531 -4.125 10.648438 -4.019531 11.078125 -4.0625 C 11.515625 -4.113281 11.832031 -4.367188 12.03125 -4.828125 L 12.046875 -4.859375 C 12.222656 -5.265625 12.207031 -5.632812 12 -5.96875 C 11.789062 -6.3125 11.40625 -6.601562 10.84375 -6.84375 L 8.234375 -7.96875 Z M 7.125 -5.421875 "/></g></g></g><g fill="#000000" fill-opacity="1"><g transform="translate(235.497086, 99.136964)"><g><path d="M 14.015625 -6.75 C 14.847656 -6.1875 15.523438 -5.519531 16.046875 -4.75 C 16.566406 -3.988281 16.914062 -3.1875 17.09375 -2.34375 C 17.28125 -1.5 17.289062 -0.640625 17.125 0.234375 C 16.957031 1.117188 16.613281 1.953125 16.09375 2.734375 L 16.078125 2.75 C 15.566406 3.539062 14.9375 4.179688 14.1875 4.671875 C 13.445312 5.160156 12.648438 5.488281 11.796875 5.65625 C 10.941406 5.832031 10.054688 5.832031 9.140625 5.65625 C 8.234375 5.488281 7.359375 5.125 6.515625 4.5625 C 5.671875 4.007812 4.988281 3.347656 4.46875 2.578125 C 3.957031 1.816406 3.613281 1.015625 3.4375 0.171875 C 3.257812 -0.671875 3.25 -1.53125 3.40625 -2.40625 C 3.570312 -3.289062 3.910156 -4.125 4.421875 -4.90625 L 4.4375 -4.9375 C 4.957031 -5.71875 5.585938 -6.351562 6.328125 -6.84375 C 7.066406 -7.332031 7.867188 -7.660156 8.734375 -7.828125 C 9.597656 -8.003906 10.484375 -8.003906 11.390625 -7.828125 C 12.296875 -7.660156 13.171875 -7.300781 14.015625 -6.75 Z M 8.015625 2.359375 C 8.503906 2.691406 9.007812 2.898438 9.53125 2.984375 C 10.050781 3.078125 10.554688 3.054688 11.046875 2.921875 C 11.535156 2.796875 11.992188 2.578125 12.421875 2.265625 C 12.859375 1.960938 13.234375 1.578125 13.546875 1.109375 L 13.5625 1.078125 C 13.875 0.609375 14.085938 0.113281 14.203125 -0.40625 C 14.316406 -0.925781 14.328125 -1.441406 14.234375 -1.953125 C 14.148438 -2.460938 13.96875 -2.941406 13.6875 -3.390625 C 13.40625 -3.835938 13.019531 -4.222656 12.53125 -4.546875 C 12.050781 -4.859375 11.546875 -5.0625 11.015625 -5.15625 C 10.484375 -5.25 9.96875 -5.234375 9.46875 -5.109375 C 8.976562 -4.984375 8.519531 -4.765625 8.09375 -4.453125 C 7.664062 -4.140625 7.296875 -3.75 6.984375 -3.28125 L 6.96875 -3.265625 C 6.664062 -2.785156 6.453125 -2.285156 6.328125 -1.765625 C 6.210938 -1.242188 6.195312 -0.726562 6.28125 -0.21875 C 6.375 0.28125 6.566406 0.753906 6.859375 1.203125 C 7.148438 1.660156 7.535156 2.046875 8.015625 2.359375 Z M 8.015625 2.359375 "/></g></g></g><g fill="#000000" fill-opacity="1"><g transform="translate(250.952745, 109.994512)"><g><path d="M 9.09375 -7.71875 C 9.351562 -8.007812 9.679688 -8.164062 10.078125 -8.1875 C 10.472656 -8.207031 10.820312 -8.082031 11.125 -7.8125 C 11.425781 -7.550781 11.585938 -7.222656 11.609375 -6.828125 C 11.628906 -6.429688 11.507812 -6.085938 11.25 -5.796875 L 4.3125 2.046875 C 4.050781 2.347656 3.722656 2.507812 3.328125 2.53125 C 2.929688 2.550781 2.582031 2.429688 2.28125 2.171875 C 1.976562 1.898438 1.816406 1.566406 1.796875 1.171875 C 1.773438 0.773438 1.894531 0.425781 2.15625 0.125 Z M 9.09375 -7.71875 "/></g></g></g><g fill="#000000" fill-opacity="1"><g transform="translate(257.974699, 116.165071)"><g><path d="M 1.671875 -0.046875 L 1.703125 -0.078125 C 2.078125 -0.410156 2.53125 -0.570312 3.0625 -0.5625 L 13.5 -0.640625 L 9.65625 -5.046875 C 9.425781 -5.296875 9.320312 -5.597656 9.34375 -5.953125 C 9.375 -6.304688 9.519531 -6.597656 9.78125 -6.828125 C 10.039062 -7.054688 10.34375 -7.15625 10.6875 -7.125 C 11.039062 -7.101562 11.332031 -6.96875 11.5625 -6.71875 L 17.078125 -0.390625 C 17.304688 -0.128906 17.410156 0.175781 17.390625 0.53125 C 17.367188 0.882812 17.226562 1.175781 16.96875 1.40625 L 16.921875 1.4375 C 16.566406 1.75 16.113281 1.914062 15.5625 1.9375 L 5.125 2.015625 L 9.109375 6.578125 C 9.335938 6.835938 9.441406 7.144531 9.421875 7.5 C 9.398438 7.851562 9.253906 8.144531 8.984375 8.375 C 8.722656 8.601562 8.414062 8.703125 8.0625 8.671875 C 7.71875 8.648438 7.429688 8.507812 7.203125 8.25 L 1.546875 1.765625 C 1.304688 1.492188 1.195312 1.179688 1.21875 0.828125 C 1.25 0.472656 1.398438 0.179688 1.671875 -0.046875 Z M 1.671875 -0.046875 "/></g></g></g><g fill="#000000" fill-opacity="1"><g transform="translate(101.147414, 257.506611)"><g><path d="M 1.78125 0.21875 L 8.484375 -5.890625 C 8.742188 -6.117188 9.046875 -6.222656 9.390625 -6.203125 C 9.734375 -6.191406 10.023438 -6.054688 10.265625 -5.796875 C 10.492188 -5.535156 10.597656 -5.234375 10.578125 -4.890625 C 10.566406 -4.546875 10.429688 -4.257812 10.171875 -4.03125 L 7.6875 -1.765625 L 10.796875 1.65625 L 13.28125 -0.609375 C 13.539062 -0.835938 13.84375 -0.945312 14.1875 -0.9375 C 14.53125 -0.925781 14.820312 -0.789062 15.0625 -0.53125 C 15.289062 -0.269531 15.394531 0.03125 15.375 0.375 C 15.363281 0.726562 15.226562 1.019531 14.96875 1.25 L 8.265625 7.359375 C 8.003906 7.585938 7.703125 7.691406 7.359375 7.671875 C 7.015625 7.660156 6.726562 7.523438 6.5 7.265625 C 6.257812 7.003906 6.144531 6.703125 6.15625 6.359375 C 6.175781 6.015625 6.316406 5.726562 6.578125 5.5 L 9.109375 3.203125 L 6 -0.21875 L 3.46875 2.078125 C 3.207031 2.304688 2.90625 2.414062 2.5625 2.40625 C 2.21875 2.394531 1.929688 2.257812 1.703125 2 C 1.460938 1.738281 1.347656 1.429688 1.359375 1.078125 C 1.378906 0.734375 1.519531 0.445312 1.78125 0.21875 Z M 1.78125 0.21875 "/></g></g></g><g fill="#000000" fill-opacity="1"><g transform="translate(111.670311, 268.756023)"><g><path d="M 1.59375 -0.765625 L 10.375 -5.109375 C 10.675781 -5.265625 10.976562 -5.332031 11.28125 -5.3125 C 11.582031 -5.289062 11.867188 -5.164062 12.140625 -4.9375 L 12.25 -4.859375 C 12.507812 -4.640625 12.675781 -4.382812 12.75 -4.09375 C 12.820312 -3.800781 12.816406 -3.488281 12.734375 -3.15625 L 10.046875 6.265625 C 9.953125 6.503906 9.875 6.65625 9.8125 6.71875 C 9.601562 6.976562 9.335938 7.125 9.015625 7.15625 C 8.691406 7.195312 8.398438 7.113281 8.140625 6.90625 C 7.921875 6.71875 7.78125 6.5 7.71875 6.25 C 7.664062 6.007812 7.679688 5.75 7.765625 5.46875 L 8.3125 3.609375 L 4.453125 0.40625 L 2.65625 1.3125 C 2.425781 1.445312 2.1875 1.5 1.9375 1.46875 C 1.695312 1.445312 1.472656 1.351562 1.265625 1.1875 C 1.015625 0.976562 0.875 0.71875 0.84375 0.40625 C 0.820312 0.09375 0.914062 -0.191406 1.125 -0.453125 C 1.175781 -0.515625 1.242188 -0.570312 1.328125 -0.625 C 1.421875 -0.675781 1.507812 -0.722656 1.59375 -0.765625 Z M 6.609375 -0.703125 L 9.03125 1.328125 L 10.21875 -2.578125 Z M 6.609375 -0.703125 "/></g></g></g><g fill="#000000" fill-opacity="1"><g transform="translate(123.677067, 278.297686)"><g/></g></g><g fill="#000000" fill-opacity="1"><g transform="translate(130.113659, 282.677323)"><g><path d="M 1.734375 -0.375 L 5.953125 -8.390625 C 6.117188 -8.691406 6.367188 -8.894531 6.703125 -9 C 7.035156 -9.101562 7.359375 -9.070312 7.671875 -8.90625 L 7.890625 -8.78125 C 8.148438 -8.644531 8.335938 -8.46875 8.453125 -8.25 C 8.566406 -8.039062 8.648438 -7.800781 8.703125 -7.53125 L 10.015625 0.328125 L 12.75 -4.859375 C 12.90625 -5.171875 13.144531 -5.375 13.46875 -5.46875 C 13.800781 -5.570312 14.117188 -5.539062 14.421875 -5.375 C 14.734375 -5.21875 14.9375 -4.976562 15.03125 -4.65625 C 15.125 -4.332031 15.09375 -4.015625 14.9375 -3.703125 L 10.703125 4.3125 C 10.546875 4.613281 10.300781 4.816406 9.96875 4.921875 C 9.644531 5.023438 9.328125 4.992188 9.015625 4.828125 L 8.953125 4.796875 C 8.671875 4.648438 8.476562 4.472656 8.375 4.265625 C 8.269531 4.054688 8.191406 3.8125 8.140625 3.53125 L 6.78125 -4.609375 L 3.9375 0.78125 C 3.78125 1.09375 3.535156 1.296875 3.203125 1.390625 C 2.878906 1.484375 2.566406 1.453125 2.265625 1.296875 C 1.953125 1.128906 1.742188 0.882812 1.640625 0.5625 C 1.546875 0.25 1.578125 -0.0625 1.734375 -0.375 Z M 1.734375 -0.375 "/></g></g></g><g fill="#000000" fill-opacity="1"><g transform="translate(144.297962, 289.93915)"><g><path d="M 10.375 -8.625 C 11.207031 -8.332031 11.914062 -7.914062 12.5 -7.375 C 13.09375 -6.84375 13.554688 -6.238281 13.890625 -5.5625 C 14.222656 -4.894531 14.414062 -4.175781 14.46875 -3.40625 C 14.519531 -2.644531 14.40625 -1.875 14.125 -1.09375 L 14.125 -1.0625 C 13.851562 -0.300781 13.453125 0.359375 12.921875 0.921875 C 12.398438 1.492188 11.796875 1.945312 11.109375 2.28125 C 10.429688 2.613281 9.691406 2.796875 8.890625 2.828125 C 8.085938 2.867188 7.269531 2.742188 6.4375 2.453125 C 5.613281 2.160156 4.90625 1.75 4.3125 1.21875 C 3.71875 0.6875 3.253906 0.0820312 2.921875 -0.59375 C 2.585938 -1.269531 2.394531 -1.988281 2.34375 -2.75 C 2.300781 -3.519531 2.414062 -4.289062 2.6875 -5.0625 L 2.703125 -5.078125 C 2.972656 -5.847656 3.367188 -6.519531 3.890625 -7.09375 C 4.410156 -7.664062 5.015625 -8.113281 5.703125 -8.4375 C 6.390625 -8.757812 7.132812 -8.941406 7.9375 -8.984375 C 8.738281 -9.035156 9.550781 -8.914062 10.375 -8.625 Z M 7.234375 0.3125 C 7.710938 0.476562 8.179688 0.539062 8.640625 0.5 C 9.109375 0.46875 9.53125 0.347656 9.90625 0.140625 C 10.289062 -0.0664062 10.632812 -0.34375 10.9375 -0.6875 C 11.238281 -1.03125 11.472656 -1.4375 11.640625 -1.90625 L 11.65625 -1.921875 C 11.8125 -2.390625 11.878906 -2.851562 11.859375 -3.3125 C 11.847656 -3.78125 11.75 -4.21875 11.5625 -4.625 C 11.382812 -5.039062 11.128906 -5.40625 10.796875 -5.71875 C 10.460938 -6.039062 10.054688 -6.285156 9.578125 -6.453125 C 9.109375 -6.617188 8.640625 -6.6875 8.171875 -6.65625 C 7.710938 -6.625 7.289062 -6.503906 6.90625 -6.296875 C 6.519531 -6.085938 6.175781 -5.804688 5.875 -5.453125 C 5.570312 -5.109375 5.335938 -4.703125 5.171875 -4.234375 L 5.171875 -4.203125 C 5.003906 -3.753906 4.929688 -3.296875 4.953125 -2.828125 C 4.972656 -2.359375 5.070312 -1.921875 5.25 -1.515625 C 5.425781 -1.109375 5.6875 -0.742188 6.03125 -0.421875 C 6.375 -0.0976562 6.773438 0.144531 7.234375 0.3125 Z M 7.234375 0.3125 "/></g></g></g><g fill="#000000" fill-opacity="1"><g transform="translate(160.218882, 295.112044)"><g><path d="M 3.734375 -9.640625 C 3.816406 -9.984375 4 -10.242188 4.28125 -10.421875 C 4.570312 -10.597656 4.890625 -10.648438 5.234375 -10.578125 C 5.566406 -10.503906 5.828125 -10.320312 6.015625 -10.03125 C 6.203125 -9.738281 6.253906 -9.421875 6.171875 -9.078125 L 4.15625 -0.234375 C 4.070312 0.0976562 3.882812 0.351562 3.59375 0.53125 C 3.300781 0.71875 2.988281 0.773438 2.65625 0.703125 C 2.3125 0.628906 2.046875 0.441406 1.859375 0.140625 C 1.679688 -0.148438 1.632812 -0.460938 1.71875 -0.796875 Z M 3.734375 -9.640625 "/></g></g></g><g fill="#000000" fill-opacity="1"><g transform="translate(168.239094, 296.83791)"><g><path d="M 2.078125 0.421875 L 2.09375 0.328125 C 1.800781 0.191406 1.5625 -0.00390625 1.375 -0.265625 C 1.195312 -0.535156 1.132812 -0.84375 1.1875 -1.1875 C 1.257812 -1.582031 1.4375 -1.882812 1.71875 -2.09375 C 2 -2.300781 2.335938 -2.375 2.734375 -2.3125 C 3.015625 -2.269531 3.234375 -2.175781 3.390625 -2.03125 C 3.554688 -1.894531 3.675781 -1.734375 3.75 -1.546875 C 3.832031 -1.359375 3.882812 -1.144531 3.90625 -0.90625 C 3.925781 -0.675781 3.914062 -0.441406 3.875 -0.203125 C 3.8125 0.203125 3.707031 0.597656 3.5625 0.984375 C 3.425781 1.378906 3.242188 1.722656 3.015625 2.015625 C 2.796875 2.304688 2.515625 2.53125 2.171875 2.6875 C 1.828125 2.851562 1.429688 2.898438 0.984375 2.828125 C 0.796875 2.796875 0.648438 2.722656 0.546875 2.609375 C 0.453125 2.503906 0.414062 2.359375 0.4375 2.171875 C 0.46875 1.972656 0.5625 1.84375 0.71875 1.78125 C 0.875 1.726562 1.039062 1.664062 1.21875 1.59375 C 1.40625 1.519531 1.578125 1.40625 1.734375 1.25 C 1.898438 1.09375 2.015625 0.816406 2.078125 0.421875 Z M 2.078125 0.421875 "/></g></g></g><g fill="#000000" fill-opacity="1"><g transform="translate(175.542591, 297.894859)"><g/></g></g><g fill="#000000" fill-opacity="1"><g transform="translate(183.271579, 298.60909)"><g><path d="M 1.6875 -11.5 C 2.007812 -11.507812 2.273438 -11.429688 2.484375 -11.265625 C 2.691406 -11.097656 2.851562 -10.890625 2.96875 -10.640625 L 5.890625 -3.3125 L 8.6875 -10.796875 C 8.769531 -11.003906 8.910156 -11.1875 9.109375 -11.34375 C 9.316406 -11.507812 9.570312 -11.597656 9.875 -11.609375 C 10.226562 -11.609375 10.523438 -11.492188 10.765625 -11.265625 C 11.003906 -11.046875 11.125 -10.765625 11.125 -10.421875 C 11.125 -10.328125 11.109375 -10.226562 11.078125 -10.125 C 11.054688 -10.03125 11.03125 -9.945312 11 -9.875 L 7.390625 -0.90625 C 7.128906 -0.238281 6.660156 0.09375 5.984375 0.09375 L 5.828125 0.09375 C 5.148438 0.101562 4.671875 -0.210938 4.390625 -0.859375 L 0.609375 -9.65625 C 0.554688 -9.757812 0.515625 -9.851562 0.484375 -9.9375 C 0.453125 -10.03125 0.4375 -10.132812 0.4375 -10.25 C 0.4375 -10.59375 0.554688 -10.882812 0.796875 -11.125 C 1.035156 -11.375 1.332031 -11.5 1.6875 -11.5 Z M 1.6875 -11.5 "/></g></g></g><g fill="#000000" fill-opacity="1"><g transform="translate(197.949002, 298.118741)"><g><path d="M 0.296875 -10.34375 C 0.253906 -10.675781 0.335938 -10.976562 0.546875 -11.25 C 0.765625 -11.519531 1.046875 -11.675781 1.390625 -11.71875 C 1.734375 -11.757812 2.039062 -11.671875 2.3125 -11.453125 C 2.582031 -11.234375 2.738281 -10.957031 2.78125 -10.625 L 3.8125 -1.609375 C 3.851562 -1.265625 3.769531 -0.957031 3.5625 -0.6875 C 3.351562 -0.414062 3.078125 -0.257812 2.734375 -0.21875 C 2.390625 -0.175781 2.078125 -0.265625 1.796875 -0.484375 C 1.523438 -0.703125 1.367188 -0.984375 1.328125 -1.328125 Z M 0.296875 -10.34375 "/></g></g></g><g fill="#000000" fill-opacity="1"><g transform="translate(206.231072, 297.152284)"><g><path d="M 1.0625 -1.515625 L -0.828125 -10.203125 C -0.898438 -10.535156 -0.84375 -10.847656 -0.65625 -11.140625 C -0.46875 -11.429688 -0.203125 -11.613281 0.140625 -11.6875 L 6.3125 -13.03125 C 6.613281 -13.09375 6.890625 -13.039062 7.140625 -12.875 C 7.398438 -12.707031 7.5625 -12.472656 7.625 -12.171875 C 7.695312 -11.867188 7.648438 -11.585938 7.484375 -11.328125 C 7.316406 -11.078125 7.082031 -10.921875 6.78125 -10.859375 L 1.8125 -9.78125 L 2.3125 -7.515625 L 6.5625 -8.4375 C 6.863281 -8.5 7.140625 -8.445312 7.390625 -8.28125 C 7.648438 -8.125 7.8125 -7.890625 7.875 -7.578125 C 7.945312 -7.265625 7.898438 -6.984375 7.734375 -6.734375 C 7.566406 -6.484375 7.332031 -6.328125 7.03125 -6.265625 L 2.78125 -5.34375 L 3.296875 -3.015625 L 8.34375 -4.109375 C 8.644531 -4.171875 8.925781 -4.117188 9.1875 -3.953125 C 9.445312 -3.785156 9.609375 -3.546875 9.671875 -3.234375 C 9.734375 -2.929688 9.679688 -2.648438 9.515625 -2.390625 C 9.347656 -2.140625 9.113281 -1.984375 8.8125 -1.921875 L 2.5625 -0.5625 C 2.21875 -0.488281 1.898438 -0.546875 1.609375 -0.734375 C 1.316406 -0.921875 1.132812 -1.179688 1.0625 -1.515625 Z M 1.0625 -1.515625 "/></g></g></g><g fill="#000000" fill-opacity="1"><g transform="translate(219.739529, 294.012903)"><g><path d="M -2.96875 -9.8125 C -3.0625 -10.101562 -3.035156 -10.394531 -2.890625 -10.6875 C -2.753906 -10.976562 -2.539062 -11.175781 -2.25 -11.28125 L 4.671875 -13.703125 C 4.960938 -13.804688 5.253906 -13.785156 5.546875 -13.640625 C 5.835938 -13.492188 6.03125 -13.273438 6.125 -12.984375 C 6.226562 -12.691406 6.210938 -12.398438 6.078125 -12.109375 C 5.941406 -11.816406 5.726562 -11.617188 5.4375 -11.515625 L 3.15625 -10.71875 L 5.78125 -3.25 C 5.882812 -2.925781 5.863281 -2.609375 5.71875 -2.296875 C 5.570312 -1.984375 5.332031 -1.765625 5 -1.640625 C 4.675781 -1.535156 4.359375 -1.554688 4.046875 -1.703125 C 3.734375 -1.859375 3.523438 -2.097656 3.421875 -2.421875 L 0.796875 -9.890625 L -1.484375 -9.09375 C -1.773438 -8.988281 -2.066406 -9.007812 -2.359375 -9.15625 C -2.660156 -9.300781 -2.863281 -9.519531 -2.96875 -9.8125 Z M -2.96875 -9.8125 "/></g></g></g><g fill="#000000" fill-opacity="1"><g transform="translate(232.276419, 289.336436)"><g/></g></g><g fill="#000000" fill-opacity="1"><g transform="translate(239.372789, 286.133635)"><g><path d="M 0.59375 -1.671875 L -4.046875 -9.453125 C -4.222656 -9.742188 -4.269531 -10.0625 -4.1875 -10.40625 C -4.101562 -10.75 -3.910156 -11.007812 -3.609375 -11.1875 L -3.390625 -11.3125 C -3.128906 -11.46875 -2.878906 -11.535156 -2.640625 -11.515625 C -2.398438 -11.503906 -2.148438 -11.445312 -1.890625 -11.34375 L 5.515625 -8.375 L 2.5 -13.421875 C 2.332031 -13.710938 2.285156 -14.023438 2.359375 -14.359375 C 2.441406 -14.691406 2.632812 -14.945312 2.9375 -15.125 C 3.226562 -15.289062 3.539062 -15.332031 3.875 -15.25 C 4.207031 -15.164062 4.457031 -14.976562 4.625 -14.6875 L 9.265625 -6.890625 C 9.441406 -6.597656 9.484375 -6.285156 9.390625 -5.953125 C 9.304688 -5.617188 9.117188 -5.363281 8.828125 -5.1875 L 8.765625 -5.140625 C 8.492188 -4.984375 8.238281 -4.910156 8 -4.921875 C 7.769531 -4.941406 7.519531 -5 7.25 -5.09375 L -0.40625 -8.1875 L 2.71875 -2.953125 C 2.894531 -2.648438 2.941406 -2.332031 2.859375 -2 C 2.773438 -1.675781 2.585938 -1.425781 2.296875 -1.25 C 1.984375 -1.070312 1.664062 -1.019531 1.34375 -1.09375 C 1.019531 -1.175781 0.769531 -1.367188 0.59375 -1.671875 Z M 0.59375 -1.671875 "/></g></g></g><g fill="#000000" fill-opacity="1"><g transform="translate(252.918543, 277.802998)"><g><path d="M -0.4375 -1.703125 L -2.953125 -11.1875 C -3.046875 -11.519531 -3.050781 -11.828125 -2.96875 -12.109375 C -2.894531 -12.398438 -2.71875 -12.660156 -2.4375 -12.890625 L -2.328125 -12.96875 C -2.066406 -13.1875 -1.785156 -13.300781 -1.484375 -13.3125 C -1.191406 -13.332031 -0.890625 -13.265625 -0.578125 -13.109375 L 8.125 -8.609375 C 8.34375 -8.472656 8.476562 -8.367188 8.53125 -8.296875 C 8.75 -8.035156 8.84375 -7.738281 8.8125 -7.40625 C 8.78125 -7.082031 8.632812 -6.816406 8.375 -6.609375 C 8.144531 -6.429688 7.90625 -6.34375 7.65625 -6.34375 C 7.40625 -6.34375 7.148438 -6.40625 6.890625 -6.53125 L 5.1875 -7.4375 L 1.28125 -4.296875 L 1.8125 -2.34375 C 1.882812 -2.09375 1.882812 -1.847656 1.8125 -1.609375 C 1.75 -1.367188 1.613281 -1.171875 1.40625 -1.015625 C 1.15625 -0.804688 0.875 -0.71875 0.5625 -0.75 C 0.25 -0.789062 -0.0078125 -0.941406 -0.21875 -1.203125 C -0.269531 -1.265625 -0.3125 -1.34375 -0.34375 -1.4375 C -0.382812 -1.53125 -0.414062 -1.617188 -0.4375 -1.703125 Z M 0.625 -6.625 L 3.078125 -8.59375 L -0.515625 -10.53125 Z M 0.625 -6.625 "/></g></g></g><g fill="#000000" fill-opacity="1"><g transform="translate(264.92407, 267.929402)"><g><path d="M 0.09375 -1.765625 L -6.5625 -7.921875 C -6.8125 -8.160156 -6.941406 -8.453125 -6.953125 -8.796875 C -6.972656 -9.140625 -6.863281 -9.441406 -6.625 -9.703125 L -6.4375 -9.90625 C -6.257812 -10.101562 -6.054688 -10.226562 -5.828125 -10.28125 C -5.609375 -10.332031 -5.394531 -10.332031 -5.1875 -10.28125 L 0.484375 -9.171875 L -1.078125 -14.75 C -1.210938 -15.226562 -1.113281 -15.648438 -0.78125 -16.015625 L -0.59375 -16.21875 C -0.363281 -16.46875 -0.078125 -16.597656 0.265625 -16.609375 C 0.617188 -16.628906 0.921875 -16.519531 1.171875 -16.28125 L 7.8125 -10.140625 C 8.0625 -9.910156 8.191406 -9.617188 8.203125 -9.265625 C 8.210938 -8.921875 8.101562 -8.625 7.875 -8.375 C 7.632812 -8.125 7.34375 -7.992188 7 -7.984375 C 6.664062 -7.972656 6.375 -8.082031 6.125 -8.3125 L 1.953125 -12.171875 L 2.9375 -8.265625 C 3 -8.035156 3.015625 -7.816406 2.984375 -7.609375 C 2.960938 -7.410156 2.875 -7.226562 2.71875 -7.0625 C 2.5625 -6.894531 2.382812 -6.789062 2.1875 -6.75 C 1.988281 -6.707031 1.769531 -6.703125 1.53125 -6.734375 L -2.390625 -7.421875 L 1.765625 -3.578125 C 2.015625 -3.335938 2.144531 -3.050781 2.15625 -2.71875 C 2.164062 -2.382812 2.054688 -2.09375 1.828125 -1.84375 C 1.585938 -1.582031 1.300781 -1.441406 0.96875 -1.421875 C 0.632812 -1.410156 0.34375 -1.523438 0.09375 -1.765625 Z M 0.09375 -1.765625 "/></g></g></g></svg>